<svg xmlns="http://www.w3.org/2000/svg" width="332.431" height="702.511" viewBox="0 0 332.431 702.511">
  <g id="Group_1424" data-name="Group 1424" transform="translate(-28.513 0.269)">
    <path id="Union_3" data-name="Union 3" d="M-573.679,2105.417c-6.79-.075-11.329-6.5-11.334-15.512,0-8.988,4.594-14.838,11.334-14.935,4.331-.061,10.432-.046,15.9-.031,2.6.007,5.065.014,7.127.014,6.258,0,12.515-.056,18.775.016,6.754.075,15.28,6.1,15.362,14.935.084,9.188-4.4,15.451-11.4,15.512-6.662.06-15.491.094-24.2.094C-559.948,2105.511-567.689,2105.483-573.679,2105.417Zm-35.579-13.694c-.253-8.131,3.876-14.716,9.447-15.059s10.141,5.676,10.408,13.721-3.92,14.649-9.5,14.985c-.162.01-.324.014-.485.014C-604.866,2105.385-609.008,2099.707-609.258,2091.722Zm107.216-1.79c.121-9.186,4.144-14.234,11.367-14.234,1.129,0,2.083,0,2.888,0,.283-.04,2-.112,6.623-.228a16.04,16.04,0,0,0,10.215-4.829c4.865-4.807,6.263-14.308,4.324-22.343-2.049-8.546-7.092-13.668-13.738-13.688-37.122-.106-35.789-.128-72.923-.254-6.654-.02-11.025-6.231-10.969-15.187.057-8.734,4.353-14.652,10.84-14.727,1.228-.012,1.994-.021,2.451-.026-1.03-.009,1.74-.023,0,0,.358,0,1.175.005,2.8.005,21.93,0,9.388.084,31.318-.042,10.232-.06,16.945-13.123,14.176-27.158-1.6-8.153-5.357-13.872-11.336-15.708H-620.735c-4.026,0-7.624-1.121-10.113-6.263a20.017,20.017,0,0,1-.977-15.313c1.658-5.091,4.492-7.991,8.4-8.4a43.268,43.268,0,0,1,4.352-.063c15.725,0,27.979,0,39.384,0,18.786,0,35.267,0,61.161-.018,8.565-.01,13.9-5.163,15.863-15.157,2.769-14.035-3.944-27.1-14.176-27.158-21.93-.126-9.388-.042-31.318-.042-1.626,0-2.444,0-2.8.005-.456-.006-1.223-.014-2.451-.026-6.486-.075-10.783-5.992-10.84-14.728-.056-8.956,4.315-15.167,10.969-15.187,37.133-.125,35.8-.147,72.923-.253,6.647-.02,11.689-5.143,13.738-13.688,1.94-8.034.542-17.536-4.324-22.342a16.04,16.04,0,0,0-10.215-4.829c-4.633-.117-6.346-.188-6.625-.229h-2.886c-7.223,0-11.246-5.048-11.367-14.234-.112-9.238,4.238-15.419,11.219-15.429l123.944.02c-.027.806-.112,172.882,0,173.34h-4.106c2.547.009,3.956.012,3.956.009,0-.047.015,143.749.015,143.749l-123.809.092C-497.8,2105.351-502.153,2099.17-502.042,2089.932Zm-131.213-53.874c-6.2-.132-10.506-6.3-10.6-14.849-.094-8.469,4.139-15.34,10.241-15.469q20.4-.429,40.8-.014c6.14.116,10.429,6.839,10.411,15.25-.02,8.772-4.4,14.975-10.851,15.093-6.533.121-13.068.027-19.6.025-2.12,0-4.239.009-6.359.019-2.014.009-4.029.019-6.044.019C-627.921,2036.131-630.588,2036.114-633.254,2036.058Zm266.375-74.548h0Zm-316.311-1.849c-.777,0-1.306,0-1.651,0l-1.363-.024c-7.268-.121-11.9-6.294-11.794-15.522.1-9.134,4.612-14.942,11.745-14.969,12.383-.042,9.408-.05,21.791,0,7.014.03,11.611,6.114,11.616,15.186.008,8.985-4.6,15.169-11.569,15.3-2.413.044-4.826.058-7.239.058C-675.5,1959.7-679.345,1959.662-683.191,1959.662Zm-1.651,0c1.01.021.967.028.629.028C-684.779,1959.693-686.166,1959.673-684.842,1959.665Zm133.878-70.567c.7.009.67.012.452.012C-550.837,1889.109-551.581,1889.1-550.965,1889.1Zm-82.649-1.326c-6.1-.129-10.336-7-10.241-15.469.094-8.55,4.4-14.717,10.6-14.849,4.68-.1,9.362-.077,14.044-.055q3.179.016,6.359.02c6.534,0,13.069-.1,19.6.025,6.449.117,10.831,6.321,10.851,15.093.018,8.41-4.271,15.133-10.411,15.25q-10.157.2-20.317.2Q-623.37,1887.984-633.614,1887.772Zm59.935-69.23c-6.74-.1-11.336-5.948-11.334-14.935,0-9.008,4.544-15.437,11.334-15.512,12.649-.14,33.117-.113,45.769,0,7,.061,11.483,6.324,11.4,15.512-.082,8.832-8.609,14.858-15.362,14.935-6.259.072-12.517.016-18.775.016-2.062,0-4.523.006-7.127.014-2.461.006-5.051.014-7.549.014C-568.378,1818.585-571.3,1818.575-573.679,1818.542Zm-25.68-1.68c-.149,0-.3,0-.452-.014-5.571-.343-9.7-6.928-9.447-15.06.256-8.218,4.638-13.992,10.355-13.647,5.579.336,9.767,6.943,9.5,14.984-.258,7.827-4.585,13.735-9.955,13.736Z" transform="translate(727.013 -1787.769)" fill="#219df8" stroke="rgba(0,0,0,0)" stroke-miterlimit="10" stroke-width="1" opacity="0.1"/>
    <g id="Group_1423" data-name="Group 1423" transform="translate(29.013 528.231)" opacity="0.1" style="isolation: isolate">
      <path id="Path_22264" data-name="Path 22264" d="M1797.046,2765.375H1543.19c-4.026,0-7.624-1.121-10.113-6.263a20.018,20.018,0,0,1-.978-15.313c1.658-5.091,4.492-7.991,8.4-8.4a43.454,43.454,0,0,1,4.352-.063c41.625-.011,58.931.009,100.546-.022,8.565-.01,13.9-5.163,15.863-15.156,2.769-14.036-3.943-27.1-14.176-27.159-21.931-.125-9.387-.042-31.317-.042-7.532,0,2.278.051-5.254-.021-6.486-.074-10.783-5.992-10.839-14.727-.056-8.956,4.316-15.167,10.969-15.187,37.133-.126,35.8-.147,72.922-.253,6.646-.02,11.689-5.143,13.739-13.688,1.939-8.034.542-17.536-4.324-22.342a16.043,16.043,0,0,0-10.215-4.83c-18.222-.459,8.719-.209-9.512-.229-7.223,0-11.246-5.048-11.366-14.234-.112-9.237,4.238-15.419,11.218-15.428l123.944.02C1797.019,2592.844,1796.932,2765.823,1797.046,2765.375Z" transform="translate(-1465.925 -2591.865)" fill="#219df8" stroke="rgba(0,0,0,0)" stroke-miterlimit="10" stroke-width="1"/>
      <path id="Path_22265" data-name="Path 22265" d="M1536.163,2622.807c-6.2.132-10.506,6.3-10.6,14.849-.094,8.469,4.139,15.341,10.241,15.469q20.4.43,40.8.015c6.14-.117,10.43-6.839,10.412-15.25-.02-8.772-4.4-14.976-10.851-15.093-6.534-.121-13.069-.027-19.6-.025C1549.763,2622.776,1542.961,2622.663,1536.163,2622.807Z" transform="translate(-1471.417 -2553.354)" fill="#219df8" stroke="rgba(0,0,0,0)" stroke-miterlimit="10" stroke-width="1"/>
      <path id="Path_22266" data-name="Path 22266" d="M1608.654,2622.49c6.753-.076,15.28-6.1,15.362-14.934.082-9.188-4.4-15.451-11.4-15.512-12.651-.113-33.12-.139-45.769,0-6.79.075-11.329,6.5-11.333,15.512,0,8.987,4.593,14.838,11.333,14.934,6.391.09,16.638.014,23.031.016C1596.136,2622.506,1602.394,2622.562,1608.654,2622.49Z" transform="translate(-1442.525 -2591.948)" fill="#219df8" stroke="rgba(0,0,0,0)" stroke-miterlimit="10" stroke-width="1"/>
      <path id="Path_22267" data-name="Path 22267" d="M1532.147,2685.087c6.97-.131,11.577-6.315,11.569-15.3-.006-9.072-4.6-15.156-11.617-15.185-12.383-.055-9.407-.047-21.79,0-7.133.027-11.643,5.834-11.745,14.969-.1,9.229,4.526,15.4,11.794,15.523a29,29,0,0,0,3.014.021C1519.629,2685.11,1525.888,2685.2,1532.147,2685.087Z" transform="translate(-1498.561 -2513.449)" fill="#219df8" stroke="rgba(0,0,0,0)" stroke-miterlimit="10" stroke-width="1"/>
      <path id="Path_22268" data-name="Path 22268" d="M1542.819,2605.666c-.252,8.132,3.876,14.717,9.447,15.06s10.141-5.675,10.408-13.722-3.92-14.649-9.5-14.984C1547.458,2591.674,1543.076,2597.448,1542.819,2605.666Z" transform="translate(-1454.077 -2591.878)" fill="#219df8" stroke="rgba(0,0,0,0)" stroke-miterlimit="10" stroke-width="1"/>
    </g>
  </g>
</svg>
