<svg xmlns="http://www.w3.org/2000/svg" xmlns:xlink="http://www.w3.org/1999/xlink" width="18" height="18" viewBox="0 0 18 18">
  <defs>
    <clipPath id="clip-path">
      <rect id="Rectangle_540" data-name="Rectangle 540" width="18" height="18" fill="#af0606"/>
    </clipPath>
  </defs>
  <g id="Mask_Group_28" data-name="Mask Group 28" clip-path="url(#clip-path)">
    <g id="Google__G__Logo" transform="translate(0.178 0)">
      <path id="Path_21804" data-name="Path 21804" d="M17.642,9.206a10.584,10.584,0,0,0-.155-1.829H9v3.466h4.861a4.166,4.166,0,0,1-1.8,2.735v2.249h2.9A8.789,8.789,0,0,0,17.642,9.206Z" transform="translate(0.002 0.001)" fill="#4285f4"/>
      <path id="Path_21805" data-name="Path 21805" d="M9,18a8.615,8.615,0,0,0,5.966-2.173l-2.9-2.249a5.458,5.458,0,0,1-8.115-2.854H.956v2.318A9,9,0,0,0,9,18Z" transform="translate(0.002 0.001)" fill="#34a853"/>
      <path id="Path_21806" data-name="Path 21806" d="M3.945,10.724a5.391,5.391,0,0,1,0-3.446V4.96H.956a9.007,9.007,0,0,0,0,8.082Z" transform="translate(0.002 0.001)" fill="#fbbc04"/>
      <path id="Path_21807" data-name="Path 21807" d="M9,3.562A4.891,4.891,0,0,1,12.45,4.911h0L15.02,2.341A8.65,8.65,0,0,0,9,0,9,9,0,0,0,.956,4.96L3.945,7.278A5.383,5.383,0,0,1,9,3.562Z" transform="translate(0.002 0.001)" fill="#ea4335"/>
    </g>
  </g>
</svg>
