<svg xmlns="http://www.w3.org/2000/svg" width="195.875" height="187.838" viewBox="0 0 195.875 187.838">
  <g id="Group_1402" data-name="Group 1402" transform="translate(-1497.199 -2590.587)">
    <g id="Group_1401" data-name="Group 1401" transform="translate(1498.199 2590.587)">
      <line id="Line_238" data-name="Line 238" x2="0.014" transform="translate(148.46)" fill="#219df8"/>
      <path id="Path_22246" data-name="Path 22246" d="M1707.671,2666.934c.152-27.967-39.527-72.5-41.782-75.02,0,0-41.934,47.053-41.782,75.02a60.576,60.576,0,0,0,.349,6.25c3.99,36.547,49.989,50.724,73.425,22.4C1703.5,2688.8,1707.6,2679.531,1707.671,2666.934Z" transform="translate(-1517.402 -2590.789)" fill="#219df8"/>
      <g id="Group_1427" data-name="Group 1427">
        <path id="Path_22241" data-name="Path 22241" d="M1628.19,2710.607c-14.156,0-32.642-.107-33.173-.107h-.012c-12.006.063-10.064-.012-22.07-.031-9.047-.016-8.755.008-17.8-.012-2.364-.008-4.2-2.037-4.459-4.805-.28-2.9.922-5.448,3.033-6.227a6.245,6.245,0,0,1,2.147-.248c22.227-.012,16.667.016,38.894-.075a7.685,7.685,0,0,0,4.4-1.509c2.163-1.611,2.962-5.141,2.285-8.2-.709-3.179-2.675-5.294-5.215-5.558a20.907,20.907,0,0,0-2.175-.075c-17.7.024-12.636.055-30.342.071a9.817,9.817,0,0,1-2.5-.2c-2.158-.567-3.608-3.065-3.486-5.825a5.934,5.934,0,0,1,5.226-5.3c2.623-.115,7.584-.043,10.207-.043h3.487c.46,0,1.406,0,3.214-.012,3.147-.008,5.416-2.021,6.212-5.381,1.071-4.513-1.237-9.194-4.853-9.78a13.334,13.334,0,0,0-2.175-.091c-14.688-.008-28.187-.012-42.871,0a4.32,4.32,0,0,1-4.274-2.355,6.777,6.777,0,0,1-.413-5.759c.7-1.915,1.9-3.005,3.549-3.159.61-.055,1.225-.024,1.839-.024,17.591,0,24.905,0,42.492-.008,3.62,0,5.873-1.942,6.7-5.7,1.17-5.278-1.666-10.19-5.991-10.213-9.268-.047-3.967-.016-13.235-.016-3.183,0,.963.02-2.22-.008-2.741-.028-4.557-2.253-4.581-5.538-.024-3.368,1.824-5.7,4.636-5.711,15.693-.047,15.129-.055,30.818-.095,2.809-.008,4.94-1.934,5.806-5.148.819-3.021.229-6.594-1.827-8.4a7.162,7.162,0,0,0-4.317-1.816c-7.7-.173,3.685-.079-4.02-.086-3.053,0-4.753-1.9-4.8-5.353-.047-3.474,1.791-5.8,4.741-5.8l52.38.008c-6.338,7.275-42.024,49.464-41.882,76.218a62.823,62.823,0,0,0,.366,6.531A43.678,43.678,0,0,0,1628.19,2710.607Z" transform="translate(-1503.206 -2590.804)" fill="#219df8"/>
        <path id="Path_22242" data-name="Path 22242" d="M1530.042,2622.761c-2.622.05-4.44,2.369-4.48,5.584-.04,3.185,1.749,5.769,4.328,5.817q8.62.161,17.244.006c2.595-.044,4.408-2.572,4.4-5.735-.009-3.3-1.86-5.632-4.586-5.676-2.761-.046-5.523-.01-8.284-.009C1535.789,2622.749,1532.915,2622.707,1530.042,2622.761Z" transform="translate(-1502.372 -2595.49)" fill="#219df8"/>
        <path id="Path_22243" data-name="Path 22243" d="M1577.971,2603.434c2.854-.029,6.458-2.295,6.492-5.616.035-3.455-1.861-5.81-4.818-5.833q-8.02-.064-16.04,0c-2.87.028-4.71,2.344-4.712,5.732s.189,5.676,3.037,5.712c2.7.034,5.4.007,8.1.008C1572.681,2603.44,1575.326,2603.461,1577.971,2603.434Z" transform="translate(-1507.456 -2590.795)" fill="#219df8"/>
        <path id="Path_22244" data-name="Path 22244" d="M1512.755,2666.042c2.946-.049,4.893-2.375,4.889-5.753,0-3.411-1.945-5.7-4.909-5.71-5.233-.021-3.976-.018-9.209,0-3.014.01-4.92,2.194-4.964,5.629-.043,3.47,1.913,5.792,4.984,5.837,2.588.039-1.314.008,1.274.008C1507.465,2666.051,1510.11,2666.085,1512.755,2666.042Z" transform="translate(-1498.255 -2600.344)" fill="#219df8"/>
        <path id="Path_22245" data-name="Path 22245" d="M1538.972,2686.5c-2.456.089-4.214,2.258-4.364,5.277-.154,3.117,1.456,5.922,3.9,6.075a92.916,92.916,0,0,0,11.155.013c2.431-.142,4.1-2.969,3.961-6.033-.136-3.012-1.916-5.241-4.337-5.332-1.69-.063-3.382-.012-5.073-.012C1542.467,2686.485,1540.718,2686.435,1538.972,2686.5Z" transform="translate(-1503.751 -2605.21)" fill="#219df8"/>
        <path id="Path_22247" data-name="Path 22247" d="M1535.941,2723.737c.005,3.009,1.9,5.454,4.209,5.447,2.344-.009,4.173-2.4,4.17-5.448s-1.814-5.418-4.171-5.42S1535.936,2720.722,1535.941,2723.737Z" transform="translate(-1503.955 -2610.067)" fill="#219df8"/>
        <path id="Path_22248" data-name="Path 22248" d="M1542.813,2597.142c-.107,3.058,1.638,5.534,3.993,5.663s4.286-2.134,4.4-5.16-1.657-5.509-4.015-5.635C1544.773,2591.88,1542.922,2594.052,1542.813,2597.142Z" transform="translate(-1505.003 -2590.803)" fill="#219df8"/>
      </g>
      <path id="Path_22249" data-name="Path 22249" d="M1677.148,2636.827a8.263,8.263,0,1,0,16.525,0,8.263,8.263,0,1,0-16.525,0Z" transform="translate(-1525.492 -2596.379)" fill="#fff"/>
      <path id="Path_22250" data-name="Path 22250" d="M1663.022,2623.242a8.8,8.8,0,0,1,8.8,8.8,8.8,8.8,0,0,0,0-17.607A8.8,8.8,0,0,1,1663.022,2623.242Z" transform="translate(-1523.337 -2594.224)" fill="#fff"/>
      <path id="Path_22251" data-name="Path 22251" d="M1667.887,2645.81a4.68,4.68,0,1,0,9.36,0,4.68,4.68,0,1,0-9.36,0Z" transform="translate(-1524.079 -2598.295)" fill="#fff"/>
      <path id="Path_22252" data-name="Path 22252" d="M1653.027,2657.808c-1.209-9.057-4.4-16.825-8.842-22.165a24.661,24.661,0,0,0-4.715-4.4l-3.108,5.3a18.908,18.908,0,0,1,3.223,3.171c3.124,3.848,5.564,9.383,6.872,15.8a30.289,30.289,0,0,0-5.642-.526h-13.51a47.67,47.67,0,0,0-3.593,21.587h3.12a2.022,2.022,0,0,1,0,4.043h-2.989q.323,1.7.76,3.37h2.229a2.02,2.02,0,1,1,0,4.039h-.979a46.813,46.813,0,0,0,2.355,5.479,46.212,46.212,0,0,0,6.224,9.308l.031.036.036.043c.819,1.043,1.7,2.062,2.606,3.032a26.987,26.987,0,0,0,6.208,4.919l.04.024c5.248,3.021,8.755,4.5,14.855,4.946v-15.173c4.966-4.776,7.6-11.731,7.6-19.578C1665.813,2670.84,1661.4,2662.078,1653.027,2657.808Zm-9.2,31.734a8.474,8.474,0,1,1,8.471-8.483A8.475,8.475,0,0,1,1643.824,2689.542Z" transform="translate(-1517.326 -2596.787)" fill="#fff"/>
      <text id="yalla" transform="translate(0.061 161.494)" fill="#219df8" font-size="34" font-family="NasalizationRg-Regular, Nasalization"><tspan x="0" y="0">yalla</tspan></text>
      <text id="save_more_" data-name="save more!" transform="translate(76 184.838)" fill="#219df8" font-size="13" font-family="NasalizationRg-Regular, Nasalization"><tspan x="-76.024" y="0">save more!</tspan></text>
      <text id="wash" transform="translate(92.042 161.743)" fill="#219df8" font-size="34" font-family="NasalizationRg-Regular, Nasalization"><tspan x="0" y="0">wash</tspan></text>
      <g id="Group_1400" data-name="Group 1400" transform="translate(186.595 133.988)">
        <path id="Path_22253" data-name="Path 22253" d="M1725.838,2754.773a1.561,1.561,0,0,0,.262-.882,1.582,1.582,0,0,0-.124-.624,1.585,1.585,0,0,0-.844-.854,1.552,1.552,0,0,0-.625-.128h-1.827a.224.224,0,0,0-.241.236v4.485a.227.227,0,0,0,.241.242h.133a.227.227,0,0,0,.242-.242v-1.515h1.42a1.141,1.141,0,0,0,.164-.011l.033,0,.744,1.651a.219.219,0,0,0,.194.123h.222a.2.2,0,0,0,.186-.3l-.748-1.65A1.591,1.591,0,0,0,1725.838,2754.773Zm-.354-.882a.944.944,0,0,1-.086.411.915.915,0,0,1-.234.307,1.082,1.082,0,0,1-.346.195,1.245,1.245,0,0,1-.418.07h-1.344V2752.9h1.439a.966.966,0,0,1,.387.078,1.035,1.035,0,0,1,.316.214.989.989,0,0,1,.286.7Z" transform="translate(-1720.13 -2750.626)" fill="#219df8"/>
        <path id="Path_22254" data-name="Path 22254" d="M1723.854,2750.328a4.14,4.14,0,1,0,4.14,4.139A4.144,4.144,0,0,0,1723.854,2750.328Zm3.444,4.139a3.444,3.444,0,1,1-3.444-3.444A3.449,3.449,0,0,1,1727.3,2754.467Z" transform="translate(-1719.714 -2750.328)" fill="#219df8"/>
      </g>
    </g>
  </g>
</svg>
