<svg xmlns="http://www.w3.org/2000/svg" xmlns:xlink="http://www.w3.org/1999/xlink" width="198" height="164.371" viewBox="0 0 198 164.371">
  <defs>
    <linearGradient id="linear-gradient" x1="0.5" x2="0.5" y2="1" gradientUnits="objectBoundingBox">
      <stop offset="0" stop-color="#219df8"/>
      <stop offset="1" stop-color="#2698d1"/>
    </linearGradient>
  </defs>
  <g id="undraw_verified_tw20" transform="translate(0 0)">
    <ellipse id="Ellipse_46" data-name="Ellipse 46" cx="99" cy="5.712" rx="99" ry="5.712" transform="translate(0 152.947)" fill="#f5f5fc" opacity="0.3"/>
    <path id="Path_658" data-name="Path 658" d="M807.072,334.664s-2.951-1.054-4.849,3.162a83.157,83.157,0,0,1-4.849,8.854l1.687.422s.422-2.951,1.476-3.373l-.422,3.795s12.649,4.427,18.341-.422l-.211-1.476s.843.211.843,1.476l.632-.632a11.33,11.33,0,0,0-2.53-2.951c-1.245-1.107-1.673-3.213-1.82-4.53a5.624,5.624,0,0,0-8.3-4.325Z" transform="translate(-651.403 -279.373)" fill="#2f2e41"/>
    <path id="Path_659" data-name="Path 659" d="M581.286,381.108l2.76,3.513,1.756-2.007L584.3,380.1Z" transform="translate(-442.951 -289.647)" fill="#fbbebe"/>
    <path id="Path_660" data-name="Path 660" d="M573.856,611l-1,5.269,2.509,1.255,1.756-1.255V611Z" transform="translate(-436.524 -465.592)" fill="#fbbebe"/>
    <path id="Path_661" data-name="Path 661" d="M640.426,611l1,5.269-2.509,1.255-1.757-1.255V611Z" transform="translate(-485.531 -465.592)" fill="#fbbebe"/>
    <path id="Path_662" data-name="Path 662" d="M580.328,411.733l-3.513,25.091L571.8,459.656l6.022.753,4.767-21.327,6.022-18.065-.753,21.578L586.6,460.409h4.516l3.262-24.087,3.607-17.908-.094-6.681Z" transform="translate(-435.72 -313.749)" fill="#2f2e41"/>
    <path id="Path_663" data-name="Path 663" d="M743.271,732.6s-1.255-1.505-2.007-.753a31.731,31.731,0,0,0-2.509,3.764s-4.014,2.258-.753,2.76,4.265,0,4.265-.251a3.678,3.678,0,0,1,.5-1l1.255.251,1.756-.5s.753-4.623,0-4.444S743.521,733.353,743.271,732.6Z" transform="translate(-605.187 -582.427)" fill="#2f2e41"/>
    <path id="Path_664" data-name="Path 664" d="M822.6,732.6s1.255-1.505,2.007-.753a31.729,31.729,0,0,1,2.509,3.764s4.014,2.258.753,2.76-4.265,0-4.265-.251a3.678,3.678,0,0,0-.5-1l-1.255.251-1.756-.5s-.753-4.623,0-4.444S822.352,733.353,822.6,732.6Z" transform="translate(-668.461 -582.427)" fill="#2f2e41"/>
    <circle id="Ellipse_47" data-name="Ellipse 47" cx="5.018" cy="5.018" r="5.018" transform="translate(151.508 58.216)" fill="#fbbebe"/>
    <path id="Path_665" data-name="Path 665" d="M831.855,383.546a30.528,30.528,0,0,0-.251,5.269c.251,1,.753,2.509.753,2.509l-8.029-1.505s2.258-4.767,1.756-5.52S831.855,383.546,831.855,383.546Z" transform="translate(-671.942 -317.176)" fill="#fbbebe"/>
    <path id="Path_666" data-name="Path 666" d="M817.343,403.225l-8.28-1.756L804.3,430.574a10.87,10.87,0,0,1,6.524.251c3.513,1.255,8.28,0,8.28,0l-1-27.349Z" transform="translate(-656.677 -330.833)" fill="url(#linear-gradient)"/>
    <path id="Path_667" data-name="Path 667" d="M783.433,391.783l-2.941,1.552-3.764.753-4.015,9.534.5,6.774s-4.265,7.778-4.767,12.043c0,0,.5,6.524,8.782,6.273l5.52-15.305s2.258-11.542,0-14.8C782.75,398.6,784.367,392.489,783.433,391.783Z" transform="translate(-629.361 -323.452)" fill="#2f2e41"/>
    <path id="Path_668" data-name="Path 668" d="M762.134,401.025l-.812-.139-.693.139a8.1,8.1,0,0,0-3.764,2.007c-2.007,1.756-8.782,7.276-9.284,8.782a8.429,8.429,0,0,0,.5,5.52,29.275,29.275,0,0,0,2.258,3.513l.753,1.756,4.265-1.255s-2.76-5.269-2.509-7.527l5.018-4.014Z" transform="translate(-613.261 -330.389)" fill="#2f2e41"/>
    <path id="Path_669" data-name="Path 669" d="M850.762,396.549l3.791,4.684,2.007,2.509-2.509,8.531-1.255,7.276s3.011,11.542.5,15.054c0,0-1.505,1.756-2.007-.251s-.5-11.542-.5-11.542-2.007-12.545-1-15.807S849.731,397.135,850.762,396.549Z" transform="translate(-691.127 -327.084)" fill="#2f2e41"/>
    <path id="Path_670" data-name="Path 670" d="M869.532,548.269v2.509s-.5,8.28,2.007,7.276.753-7.276.753-7.276l-.251-2.76Z" transform="translate(-706.357 -442.506)" fill="#fbbebe"/>
    <path id="Path_671" data-name="Path 671" d="M817.6,350.932a14.763,14.763,0,0,0,4.475-4.864s3.5,3.891,5.642,4.086.195-4.67.195-4.67l-3.891-.973-3.7.389-2.918,1.946Z" transform="translate(-666.663 -287.431)" fill="#2f2e41"/>
    <path id="Path_672" data-name="Path 672" d="M677.88,318.954l2.007.753.251,2.509,1,15.305-.5,11.542-3.763.251-1.255-12.8-.5-14.051Z" transform="translate(-514.454 -243.049)" fill="#2f2e41"/>
    <path id="Path_673" data-name="Path 673" d="M360.683,142.359h-.872V118.477a13.822,13.822,0,0,0-13.822-13.822h-50.6a13.822,13.822,0,0,0-13.822,13.822V249.492a13.822,13.822,0,0,0,13.822,13.822h50.6a13.822,13.822,0,0,0,13.822-13.822V159.358h.872Z" transform="translate(-258.351 -104.655)" fill="#3f3d56"/>
    <path id="Path_674" data-name="Path 674" d="M369.082,130.088V260.911a10.323,10.323,0,0,1-10.322,10.323H307.921A10.323,10.323,0,0,1,297.6,260.911V130.088a10.323,10.323,0,0,1,10.322-10.323h6.167a4.907,4.907,0,0,0,4.541,6.756h28.986a4.907,4.907,0,0,0,4.541-6.756h6.6a10.323,10.323,0,0,1,10.323,10.322Z" transform="translate(-270.564 -116.17)" fill="#fff"/>
    <path id="Path_675" data-name="Path 675" d="M208.862,407.821h-1.069l.356-20.884h.356Z" transform="translate(-158.342 -294.854)" fill="#e6e6e6"/>
    <path id="Path_676" data-name="Path 676" d="M378.348,404.392l1.726-2.667a39.984,39.984,0,0,0-1.771-4.145l-1.116.9.884-1.366c-.842-1.658-1.5-2.7-1.5-2.7a38.322,38.322,0,0,0-4.618,11.229l2.215,3.423-2.452-1.98a16.179,16.179,0,0,0-.134,2.029c0,6.839,2.234,12.384,4.989,12.384s4.989-5.544,4.989-12.384a21.3,21.3,0,0,0-1.141-6.39Z" transform="translate(-326.938 -325.457)" fill="#e6e6e6"/>
    <path id="Path_677" data-name="Path 677" d="M325.821,407.821h-1.069l.357-20.884h.356Z" transform="translate(-247.467 -294.854)" fill="#e6e6e6"/>
    <path id="Path_678" data-name="Path 678" d="M495.307,404.392l1.726-2.667a39.99,39.99,0,0,0-1.771-4.145l-1.116.9.884-1.366c-.842-1.658-1.5-2.7-1.5-2.7a38.322,38.322,0,0,0-4.618,11.229l2.215,3.423-2.452-1.98a16.173,16.173,0,0,0-.135,2.029c0,6.839,2.234,12.384,4.989,12.384s4.989-5.544,4.989-12.384a21.3,21.3,0,0,0-1.141-6.39Z" transform="translate(-416.063 -325.457)" fill="#e6e6e6"/>
    <circle id="Ellipse_48" data-name="Ellipse 48" cx="9.824" cy="9.824" r="9.824" transform="translate(39.883 24.093)" fill="#e6e6e6"/>
    <path id="Path_679" data-name="Path 679" d="M258.984,324.032h-2.2l.735-43.061h.735Z" transform="translate(-195.671 -214.106)" fill="#e6e6e6"/>
    <path id="Path_680" data-name="Path 680" d="M413.059,205.828l3.558-5.5a82.447,82.447,0,0,0-3.651-8.546l-2.3,1.859,1.822-2.816c-1.736-3.418-3.1-5.571-3.1-5.571s-7.137,11.246-9.521,23.153l4.566,7.057-5.055-4.083a33.357,33.357,0,0,0-.277,4.183c0,14.1,4.606,25.534,10.287,25.534s10.287-11.432,10.287-25.534a43.915,43.915,0,0,0-2.353-13.176Z" transform="translate(-347.909 -166.073)" fill="#e6e6e6"/>
    <path id="Path_681" data-name="Path 681" d="M365.817,544.807V574.08a10.751,10.751,0,0,1-10.751,10.751H302.118a10.751,10.751,0,0,1-10.751-10.751v-26.42a50.626,50.626,0,0,1,74.45-2.854Z" transform="translate(-265.816 -428.673)" fill="#3f3d56"/>
  </g>
</svg>
