<svg xmlns="http://www.w3.org/2000/svg" xmlns:xlink="http://www.w3.org/1999/xlink" width="198" height="164.371" viewBox="0 0 233.512 164.371">
  <defs>
    <linearGradient id="linear-gradient" x1="0.5" x2="0.5" y2="1" gradientUnits="objectBoundingBox">
      <stop offset="0" stop-color="#2698d1"/>
      <stop offset="1" stop-color="#219df8"/>
    </linearGradient>
    <linearGradient id="linear-gradient-2" x1="0.5" x2="0.5" y2="1" gradientUnits="objectBoundingBox">
      <stop offset="0" stop-color="#219df8"/>
      <stop offset="1" stop-color="#2698d1"/>
    </linearGradient>
    <linearGradient id="linear-gradient-3" y1="0.5" x2="1" y2="0.5" gradientUnits="objectBoundingBox">
      <stop offset="0" stop-color="gray" stop-opacity="0.251"/>
      <stop offset="0.54" stop-color="gray" stop-opacity="0.122"/>
      <stop offset="1" stop-color="gray" stop-opacity="0.102"/>
    </linearGradient>
  </defs>
  <g id="Group_854" data-name="Group 854" transform="translate(-81 -155.159)">
    <ellipse id="ground" cx="99" cy="5.712" rx="99" ry="5.712" transform="translate(81 308.107)" fill="#f5f5fc" opacity="0.3"/>
    <g id="phone">
      <path id="Path_673" data-name="Path 673" d="M360.683,142.359h-.872V118.477a13.822,13.822,0,0,0-13.822-13.822h-50.6a13.822,13.822,0,0,0-13.822,13.822V249.492a13.822,13.822,0,0,0,13.822,13.822h50.6a13.822,13.822,0,0,0,13.822-13.822V159.358h.872Z" transform="translate(-177.351 50.504)" fill="#3f3d56"/>
      <path id="Path_674" data-name="Path 674" d="M369.082,130.088V260.911a10.323,10.323,0,0,1-10.322,10.323H307.921A10.323,10.323,0,0,1,297.6,260.911V130.088a10.323,10.323,0,0,1,10.322-10.323h6.167a4.907,4.907,0,0,0,4.541,6.756h28.986a4.907,4.907,0,0,0,4.541-6.756h6.6a10.323,10.323,0,0,1,10.323,10.322Z" transform="translate(-189.564 38.99)" fill="#fff"/>
      <path id="Path_675" data-name="Path 675" d="M208.862,407.821h-1.069l.356-20.884h.356Z" transform="translate(-77.342 -139.694)" fill="#e6e6e6" opacity="0.38"/>
      <path id="Path_676" data-name="Path 676" d="M378.348,404.392l1.726-2.667a39.984,39.984,0,0,0-1.771-4.145l-1.116.9.884-1.366c-.842-1.658-1.5-2.7-1.5-2.7a38.322,38.322,0,0,0-4.618,11.229l2.215,3.423-2.452-1.98a16.179,16.179,0,0,0-.134,2.029c0,6.839,2.234,12.384,4.989,12.384s4.989-5.544,4.989-12.384a21.3,21.3,0,0,0-1.141-6.39Z" transform="translate(-245.938 -170.297)" fill="#e6e6e6" opacity="0.38"/>
      <path id="Path_677" data-name="Path 677" d="M325.821,407.821h-1.069l.357-20.884h.356Z" transform="translate(-166.467 -139.694)" fill="#e6e6e6" opacity="0.38"/>
      <path id="Path_678" data-name="Path 678" d="M495.307,404.392l1.726-2.667a39.99,39.99,0,0,0-1.771-4.145l-1.116.9.884-1.366c-.842-1.658-1.5-2.7-1.5-2.7a38.322,38.322,0,0,0-4.618,11.229l2.215,3.423-2.452-1.98a16.173,16.173,0,0,0-.135,2.029c0,6.839,2.234,12.384,4.989,12.384s4.989-5.544,4.989-12.384a21.3,21.3,0,0,0-1.141-6.39Z" transform="translate(-335.063 -170.297)" fill="#e6e6e6" opacity="0.38"/>
      <circle id="Ellipse_48" data-name="Ellipse 48" cx="9.824" cy="9.824" r="9.824" transform="translate(120.883 179.252)" fill="#e6e6e6" opacity="0.38"/>
      <path id="Path_679" data-name="Path 679" d="M258.984,324.032h-2.2l.735-43.061h.735Z" transform="translate(-114.671 -58.946)" fill="#e6e6e6" opacity="0.38"/>
      <path id="Path_680" data-name="Path 680" d="M413.059,205.828l3.558-5.5a82.447,82.447,0,0,0-3.651-8.546l-2.3,1.859,1.822-2.816c-1.736-3.418-3.1-5.571-3.1-5.571s-7.137,11.246-9.521,23.153l4.566,7.057-5.055-4.083a33.357,33.357,0,0,0-.277,4.183c0,14.1,4.606,25.534,10.287,25.534s10.287-11.432,10.287-25.534a43.915,43.915,0,0,0-2.353-13.176Z" transform="translate(-266.909 -10.914)" fill="#e6e6e6" opacity="0.38"/>
      <path id="Path_681" data-name="Path 681" d="M365.817,544.807V574.08a10.751,10.751,0,0,1-10.751,10.751H302.118a10.751,10.751,0,0,1-10.751-10.751v-26.42a50.626,50.626,0,0,1,74.45-2.854Z" transform="translate(-184.816 -273.513)" fill="#3f3d56"/>
      <circle id="Ellipse_49" data-name="Ellipse 49" cx="15.042" cy="15.042" r="15.042" transform="translate(128.79 207.085)" opacity="0.17" fill="url(#linear-gradient)"/>
      <circle id="Ellipse_50" data-name="Ellipse 50" cx="12.112" cy="12.112" r="12.112" transform="translate(131.72 210.016)" fill="url(#linear-gradient-2)"/>
      <path id="Path_682" data-name="Path 682" d="M244.416,529.378l-4.269-5.488,2.482-1.931,2.021,2.6,6.827-7.207,2.283,2.163Z" transform="translate(-101.997 -302.072)" fill="#fff"/>
    </g>
    <g id="Group_855" data-name="Group 855" transform="translate(63 -30.482)">
      <g id="Group_849" data-name="Group 849" transform="translate(221.654 219.138)" opacity="0.6">
        <path id="Path_683" data-name="Path 683" d="M774.776,290.638a.491.491,0,0,0-.8.569c.091.14.191.272.287.4a15.78,15.78,0,0,1,2.262,5.31,2.511,2.511,0,0,1,.1,1.4,8.725,8.725,0,0,0-.245-3.654,22.68,22.68,0,0,0-1.293-3.453A3.164,3.164,0,0,0,774.776,290.638Z" transform="translate(-763.516 -286.493)" fill="#fff" opacity="0.5"/>
        <path id="Path_684" data-name="Path 684" d="M745.046,304.529a.617.617,0,0,0-.1,1.227c.2.017.407.02.6.027a18.708,18.708,0,0,1,6.79,1.855,2.962,2.962,0,0,1,1.4.969,10.227,10.227,0,0,0-3.622-2.567,27.053,27.053,0,0,0-4.272-1.4A3.815,3.815,0,0,0,745.046,304.529Z" transform="translate(-741.261 -297.113)" fill="#fff"/>
        <path id="Path_685" data-name="Path 685" d="M746.905,316.336c-.491.017-.38.714.115.719h.38a13.9,13.9,0,0,1,4.53.81,2.328,2.328,0,0,1,1.018.51,8.167,8.167,0,0,0-2.648-1.357,20.209,20.209,0,0,0-2.876-.645A2.579,2.579,0,0,0,746.905,316.336Z" transform="translate(-742.904 -306.022)" fill="#fff" opacity="0.2"/>
        <path id="Path_686" data-name="Path 686" d="M788.15,349.618c.14.471.788.189.67-.29-.032-.125-.069-.245-.106-.368a13.972,13.972,0,0,1-.339-4.586,2.325,2.325,0,0,1,.245-1.114,8.208,8.208,0,0,0-.667,2.9,20.319,20.319,0,0,0,.1,2.945A2.778,2.778,0,0,0,788.15,349.618Z" transform="translate(-774.108 -326.34)" fill="#fff" opacity="0.5"/>
        <path id="Path_687" data-name="Path 687" d="M750.809,288.527c-.3-.052-.319.378-.024.444.079.017.155.029.228.042a8.528,8.528,0,0,1,2.6,1.06,1.412,1.412,0,0,1,.542.434,4.968,4.968,0,0,0-1.409-1.146,12.142,12.142,0,0,0-1.639-.736A1.63,1.63,0,0,0,750.809,288.527Z" transform="translate(-745.913 -285.034)" fill="#fff" opacity="0.2"/>
        <path id="Path_688" data-name="Path 688" d="M731.91,330.441c-.748.385-.115,1.445.655,1.092.2-.091.4-.194.584-.292a22.724,22.724,0,0,1,7.568-1.963,3.683,3.683,0,0,1,1.921.1,13.052,13.052,0,0,0-5.011-.3,33.03,33.03,0,0,0-4.891,1.053A4.207,4.207,0,0,0,731.91,330.441Z" transform="translate(-731.575 -315.547)" fill="#fff"/>
        <path id="Path_689" data-name="Path 689" d="M741.137,339.78c-.54.491.3,1.094.866.611.147-.125.289-.258.422-.385a22.647,22.647,0,0,1,5.97-3.646,14.033,14.033,0,0,1,3.3-.491,24.655,24.655,0,0,0-6.012,1.239,33.671,33.671,0,0,0-3.926,2.208A4.2,4.2,0,0,0,741.137,339.78Z" transform="translate(-738.659 -320.762)" fill="#fff" opacity="0.5"/>
        <path id="Path_690" data-name="Path 690" d="M757.27,350.247c-.157.719.871.736,1.063,0,.049-.186.091-.378.13-.557a22.575,22.575,0,0,1,2.837-6.395,13.553,13.553,0,0,1,2.434-2.275,24.819,24.819,0,0,0-4.24,4.437,33.2,33.2,0,0,0-1.963,4.039A4.386,4.386,0,0,0,757.27,350.247Z" transform="translate(-750.953 -324.65)" fill="#fff"/>
        <path id="Path_691" data-name="Path 691" d="M785.313,274.647c-.368-.748-1.416-.133-1.082.633.086.2.184.4.277.584a22.629,22.629,0,0,1,1.808,7.526,3.7,3.7,0,0,1-.128,1.9,13,13,0,0,0,.373-4.962,32.751,32.751,0,0,0-.965-4.873,4.3,4.3,0,0,0-.285-.812Z" transform="translate(-771.261 -274.308)" fill="#fff"/>
        <path id="Path_692" data-name="Path 692" d="M762.247,278.772a.091.091,0,0,0,.147-.059c.093-.2.039-.456.182-.623a2.178,2.178,0,0,1,.341.572l.54-.164a.8.8,0,0,1-.1.616.833.833,0,0,1,.245.172.28.28,0,0,1,.064.285,1.4,1.4,0,0,1-.38.039,2.456,2.456,0,0,1-.039.707.125.125,0,0,1-.047.088c-.039.027-.091,0-.13-.02a1.258,1.258,0,0,1-.444-.471l-.2.491a.216.216,0,0,1-.091.12.145.145,0,0,1-.167-.059.416.416,0,0,1-.059-.182l-.076-.454a.093.093,0,0,0-.024-.064.113.113,0,0,0-.079-.025h-.569c-.034-.1.066-.194.164-.245s.211-.074.26-.169c.1-.191-.157-.459-.047-.626S762.088,278.691,762.247,278.772Z" transform="translate(-754.045 -277.162)" fill="#fff"/>
        <path id="Path_693" data-name="Path 693" d="M801.376,290.565a.491.491,0,0,1,.8.569c-.093.14-.191.272-.287.4a15.731,15.731,0,0,0-2.262,5.31,2.511,2.511,0,0,0-.105,1.4,8.722,8.722,0,0,1,.245-3.654,22.417,22.417,0,0,1,1.293-3.453A3.15,3.15,0,0,1,801.376,290.565Z" transform="translate(-782.779 -286.42)" fill="#fff" opacity="0.5"/>
        <path id="Path_694" data-name="Path 694" d="M811.1,304.529a.616.616,0,0,1,.1,1.227c-.2.017-.407.02-.6.027a18.719,18.719,0,0,0-6.792,1.855,2.965,2.965,0,0,0-1.4.969,10.226,10.226,0,0,1,3.622-2.567,27.107,27.107,0,0,1,4.272-1.4A3.863,3.863,0,0,1,811.1,304.529Z" transform="translate(-785.028 -297.113)" fill="#fff"/>
        <path id="Path_695" data-name="Path 695" d="M818.414,316.34c.491.017.378.714-.115.719h-.38a13.9,13.9,0,0,0-4.53.81,2.312,2.312,0,0,0-1.018.51,8.142,8.142,0,0,1,2.648-1.357,20.209,20.209,0,0,1,2.881-.635A2.58,2.58,0,0,1,818.414,316.34Z" transform="translate(-792.544 -306.025)" fill="#fff" opacity="0.5"/>
        <path id="Path_696" data-name="Path 696" d="M823,288.527c.3-.052.319.378.025.444-.079.017-.155.029-.231.042a8.515,8.515,0,0,0-2.6,1.06,1.412,1.412,0,0,0-.542.434,4.962,4.962,0,0,1,1.406-1.146,12.306,12.306,0,0,1,1.642-.736A1.577,1.577,0,0,1,823,288.527Z" transform="translate(-798.038 -285.034)" fill="#fff" opacity="0.2"/>
        <path id="Path_697" data-name="Path 697" d="M800.355,360.945c-.066.294-.471.147-.417-.15a1.007,1.007,0,0,1,.049-.226,8.557,8.557,0,0,0,.027-2.81,1.427,1.427,0,0,0-.194-.67,4.981,4.981,0,0,1,.515,1.742,12.66,12.66,0,0,1,.056,1.8A1.477,1.477,0,0,1,800.355,360.945Z" transform="translate(-783.074 -336.776)" fill="#fff" opacity="0.2"/>
        <path id="Path_698" data-name="Path 698" d="M818.7,350.7c.231.39-.336.366-.584-.027-.066-.1-.125-.2-.184-.3a21.028,21.028,0,0,0-2.849-3.521,3.931,3.931,0,0,0-.881-.761,13.97,13.97,0,0,1,2.314,1.978c.692.736,1.3,1.472,1.9,2.228A3.912,3.912,0,0,1,818.7,350.7Z" transform="translate(-793.925 -328.476)" fill="#fff" opacity="0.5"/>
        <path id="Path_699" data-name="Path 699" d="M748.724,350.7c-.231.39.336.366.586-.027.064-.1.125-.2.182-.3a21.033,21.033,0,0,1,2.849-3.521,3.942,3.942,0,0,1,.883-.761,13.988,13.988,0,0,0-2.316,1.978c-.69.736-1.3,1.472-1.9,2.228A3.939,3.939,0,0,0,748.724,350.7Z" transform="translate(-744.475 -328.476)" fill="#fff" opacity="0.2"/>
        <path id="Path_700" data-name="Path 700" d="M779.339,360.945c.066.294.471.147.42-.15-.015-.076-.032-.155-.049-.226a8.486,8.486,0,0,1-.027-2.81,1.4,1.4,0,0,1,.191-.67,4.981,4.981,0,0,0-.515,1.742,12.283,12.283,0,0,0-.054,1.8A1.666,1.666,0,0,0,779.339,360.945Z" transform="translate(-767.584 -336.776)" fill="#fff" opacity="0.2"/>
        <path id="Path_701" data-name="Path 701" d="M813.362,300.488c.294-.049.317.38.022.444l-.228.044a8.522,8.522,0,0,0-2.6,1.058,1.413,1.413,0,0,0-.542.437,4.978,4.978,0,0,1,1.408-1.148,12.134,12.134,0,0,1,1.639-.736A1.6,1.6,0,0,1,813.362,300.488Z" transform="translate(-790.763 -294.061)" fill="#fff" opacity="0.2"/>
        <path id="Path_702" data-name="Path 702" d="M805.146,276.888c.245-.157.437.233.189.4l-.2.125a8.6,8.6,0,0,0-2.019,1.963,1.4,1.4,0,0,0-.339.606,5,5,0,0,1,.876-1.59,12.474,12.474,0,0,1,1.242-1.3A1.742,1.742,0,0,1,805.146,276.888Z" transform="translate(-785.307 -276.227)" fill="#fff" opacity="0.2"/>
        <path id="Path_703" data-name="Path 703" d="M818.9,330.441c.748.385.115,1.445-.655,1.092-.2-.091-.4-.194-.586-.292a22.694,22.694,0,0,0-7.565-1.963,3.685,3.685,0,0,0-1.921.1,13.041,13.041,0,0,1,5.008-.3,33.012,33.012,0,0,1,4.893,1.053,4.329,4.329,0,0,1,.827.314Z" transform="translate(-789.375 -315.548)" fill="#fff"/>
        <path id="Path_704" data-name="Path 704" d="M810.7,339.78c.54.491-.3,1.094-.866.611-.147-.125-.29-.258-.424-.385a22.612,22.612,0,0,0-5.97-3.646,14.109,14.109,0,0,0-3.293-.491,24.635,24.635,0,0,1,6.009,1.239,33.5,33.5,0,0,1,3.926,2.208A4.206,4.206,0,0,1,810.7,339.78Z" transform="translate(-783.323 -320.762)" fill="#fff" opacity="0.5"/>
        <path id="Path_705" data-name="Path 705" d="M801.136,351.393c.066.736-.957.616-1.055-.123-.025-.191-.042-.385-.059-.569a22.668,22.668,0,0,0-2.015-6.7,14.02,14.02,0,0,0-2.128-2.562,24.694,24.694,0,0,1,3.651,4.935,33.451,33.451,0,0,1,1.453,4.253,4.1,4.1,0,0,1,.152.766Z" transform="translate(-780.101 -324.967)" fill="#fff"/>
        <path id="Path_706" data-name="Path 706" d="M815.4,278.772a.123.123,0,0,1-.064.02c-.039,0-.069-.042-.086-.078-.091-.2-.039-.456-.179-.623a2.194,2.194,0,0,0-.344.572l-.537-.164a.793.793,0,0,0,.1.616.835.835,0,0,0-.245.172.282.282,0,0,0-.066.285,1.427,1.427,0,0,0,.38.039,2.531,2.531,0,0,0,.042.707.125.125,0,0,0,.047.088c.039.027.091,0,.13-.02a1.258,1.258,0,0,0,.444-.471l.2.491a.223.223,0,0,0,.088.12.147.147,0,0,0,.169-.059.419.419,0,0,0,.059-.182l.076-.454a.093.093,0,0,1,.025-.064.113.113,0,0,1,.078-.025h.569c.034-.1-.069-.194-.164-.245s-.214-.074-.263-.169c-.1-.191.159-.459.049-.626S815.562,278.691,815.4,278.772Z" transform="translate(-793.746 -277.162)" fill="#fff"/>
        <path id="Path_707" data-name="Path 707" d="M822.008,369.1a.118.118,0,0,1-.064.017c-.042,0-.069-.042-.086-.079-.091-.2-.039-.456-.179-.623a2.1,2.1,0,0,0-.344.574l-.537-.167a.8.8,0,0,0,.1.616.854.854,0,0,0-.245.172.282.282,0,0,0-.066.285,1.329,1.329,0,0,0,.38.039,2.535,2.535,0,0,0,.039.707.138.138,0,0,0,.047.091c.039.025.091,0,.132-.022a1.271,1.271,0,0,0,.442-.471l.2.478a.212.212,0,0,0,.088.12.14.14,0,0,0,.167-.059.42.42,0,0,0,.061-.182l.074-.454a.137.137,0,0,1,.024-.064.128.128,0,0,1,.081-.025h.569c.032-.1-.069-.194-.164-.245s-.214-.074-.263-.167c-.1-.194.157-.461.049-.626S822.175,369.021,822.008,369.1Z" transform="translate(-798.734 -345.326)" fill="#fff" opacity="0.2"/>
        <path id="Path_708" data-name="Path 708" d="M840.588,308.555a.125.125,0,0,1-.064.017c-.042,0-.069-.042-.086-.078-.093-.2-.039-.457-.182-.623a2.16,2.16,0,0,0-.341.574l-.54-.167a.8.8,0,0,0,.1.616.82.82,0,0,0-.245.172.282.282,0,0,0-.066.285,1.32,1.32,0,0,0,.38.039,2.529,2.529,0,0,0,.039.707.136.136,0,0,0,.047.091.128.128,0,0,0,.13-.022,1.258,1.258,0,0,0,.444-.471l.2.479a.211.211,0,0,0,.088.12.14.14,0,0,0,.167-.059.388.388,0,0,0,.059-.182l.076-.454a.092.092,0,0,1,.024-.064.125.125,0,0,1,.078-.025h.572c.032-.1-.069-.194-.167-.245s-.211-.074-.26-.167c-.1-.194.157-.461.049-.626S840.755,308.471,840.588,308.555Z" transform="translate(-812.755 -299.634)" fill="#fff"/>
        <path id="Path_709" data-name="Path 709" d="M764.526,377.335a.183.183,0,0,1-.088.025c-.056,0-.1-.056-.12-.108-.128-.277-.054-.638-.245-.871a3,3,0,0,0-.476.8l-.751-.233a1.114,1.114,0,0,0,.142.859,1.225,1.225,0,0,0-.353.245.4.4,0,0,0-.093.4,2.041,2.041,0,0,0,.53.054,3.58,3.58,0,0,0,.056.982.14.14,0,0,0,.245.1,1.763,1.763,0,0,0,.618-.655l.277.667a.307.307,0,0,0,.125.167.2.2,0,0,0,.245-.081.573.573,0,0,0,.084-.245l.1-.636a.159.159,0,0,1,.037-.088.145.145,0,0,1,.111-.032h.793c.047-.142-.1-.272-.231-.331s-.294-.106-.363-.245c-.137-.267.218-.641.066-.871C765.047,376.952,764.76,377.219,764.526,377.335Z" transform="translate(-754.928 -351.333)" fill="#fff"/>
        <path id="Path_710" data-name="Path 710" d="M733.61,309.532a.162.162,0,0,1-.088.027c-.056,0-.1-.056-.12-.108-.128-.277-.054-.638-.245-.871a2.962,2.962,0,0,0-.476.8l-.751-.233a1.114,1.114,0,0,0,.142.859,1.171,1.171,0,0,0-.353.245.39.39,0,0,0-.091.4,1.908,1.908,0,0,0,.528.052,3.6,3.6,0,0,0,.056.982.187.187,0,0,0,.066.125.179.179,0,0,0,.182-.029,1.763,1.763,0,0,0,.618-.655l.277.665a.3.3,0,0,0,.125.167.2.2,0,0,0,.233-.081.558.558,0,0,0,.083-.245l.1-.633a.174.174,0,0,1,.037-.091.154.154,0,0,1,.11-.029h.793c.047-.14-.093-.27-.231-.331s-.294-.1-.363-.233c-.137-.27.219-.643.069-.874S733.843,309.419,733.61,309.532Z" transform="translate(-731.599 -300.17)" fill="#fff"/>
        <path id="Path_711" data-name="Path 711" d="M830.336,352.9a.1.1,0,0,1-.047.015c-.029,0-.051-.032-.064-.059-.066-.147-.027-.339-.133-.461a1.582,1.582,0,0,0-.245.425l-.4-.123a.6.6,0,0,0,.076.456.551.551,0,0,0-.187.128.2.2,0,0,0-.049.209.983.983,0,0,0,.28.029,1.783,1.783,0,0,0,.032.523.093.093,0,0,0,.034.066c.027.02.066,0,.1-.015a.933.933,0,0,0,.329-.348l.147.353a.152.152,0,0,0,.066.088.1.1,0,0,0,.125-.042.369.369,0,0,0,.039-.128l.054-.336a.066.066,0,0,1,.078-.064h.42c.024-.074-.049-.145-.12-.177s-.159-.054-.194-.125c-.074-.142.115-.339.034-.461S830.461,352.834,830.336,352.9Z" transform="translate(-805.302 -333.23)" fill="#fff" opacity="0.2"/>
        <path id="Path_712" data-name="Path 712" d="M788.336,377.146a.1.1,0,0,1-.047.015c-.03,0-.052-.032-.064-.059-.066-.147-.027-.339-.133-.461a1.543,1.543,0,0,0-.245.425l-.4-.125a.6.6,0,0,0,.076.456.629.629,0,0,0-.187.128.209.209,0,0,0-.049.211,1.078,1.078,0,0,0,.28.029,1.783,1.783,0,0,0,.032.523.1.1,0,0,0,.032.066c.03.02.069,0,.1-.015a.934.934,0,0,0,.329-.348l.147.353a.152.152,0,0,0,.066.088.105.105,0,0,0,.125-.042.322.322,0,0,0,.042-.135l.056-.336a.087.087,0,0,1,.02-.049.078.078,0,0,1,.059-.015h.42c.024-.076-.049-.145-.12-.177s-.16-.054-.194-.125c-.074-.142.115-.339.034-.461S788.458,377.084,788.336,377.146Z" transform="translate(-773.609 -351.529)" fill="#fff" opacity="0.2"/>
        <path id="Path_713" data-name="Path 713" d="M747.737,292.268a.084.084,0,0,1-.047.012c-.032,0-.052-.029-.064-.056-.069-.147-.029-.339-.135-.464a1.622,1.622,0,0,0-.245.425l-.4-.123a.584.584,0,0,0,.073.456.617.617,0,0,0-.186.128.206.206,0,0,0-.049.211.981.981,0,0,0,.282.027,1.885,1.885,0,0,0,.029.525.1.1,0,0,0,.034.066.093.093,0,0,0,.1-.017.928.928,0,0,0,.329-.346l.147.353a.163.163,0,0,0,.066.088.108.108,0,0,0,.125-.044.3.3,0,0,0,.044-.133l.054-.339a.089.089,0,0,1,.02-.047.082.082,0,0,1,.059-.017h.422c.022-.074-.052-.142-.123-.174s-.157-.056-.194-.125c-.074-.142.115-.341.037-.464S747.848,292.207,747.737,292.268Z" transform="translate(-742.971 -287.477)" fill="#fff" opacity="0.5"/>
        <path id="Path_714" data-name="Path 714" d="M769.327,340.1a.08.08,0,0,1-.046.015.086.086,0,0,1-.064-.056c-.069-.147-.029-.339-.133-.464a1.565,1.565,0,0,0-.245.425l-.4-.123a.587.587,0,0,0,.076.456.625.625,0,0,0-.189.128.211.211,0,0,0-.049.211.984.984,0,0,0,.282.027,1.89,1.89,0,0,0,.029.525.074.074,0,0,0,.132.049.919.919,0,0,0,.326-.346l.15.353a.162.162,0,0,0,.066.088.105.105,0,0,0,.123-.044.277.277,0,0,0,.044-.133l.056-.339a.077.077,0,0,1,.017-.047.083.083,0,0,1,.059-.017h.422c.024-.074-.052-.142-.123-.174s-.157-.056-.194-.125c-.071-.142.118-.341.037-.464S769.449,340.037,769.327,340.1Z" transform="translate(-759.265 -323.571)" fill="#fff" opacity="0.5"/>
        <path id="Path_715" data-name="Path 715" d="M753.628,321.445a.1.1,0,0,1-.047.015c-.029,0-.052-.032-.064-.059-.069-.147-.029-.339-.133-.461a1.494,1.494,0,0,0-.245.425l-.4-.125a.586.586,0,0,0,.076.456.674.674,0,0,0-.189.128.214.214,0,0,0-.049.211,1.09,1.09,0,0,0,.282.029,1.865,1.865,0,0,0,.029.523.093.093,0,0,0,.034.066c.029.02.069,0,.1-.015a.926.926,0,0,0,.326-.348l.15.353a.153.153,0,0,0,.066.088.1.1,0,0,0,.123-.042.321.321,0,0,0,.044-.135l.056-.336a.086.086,0,0,1,.017-.049.084.084,0,0,1,.059-.015h.422c.024-.076-.052-.145-.123-.177s-.157-.054-.194-.125c-.074-.142.118-.339.037-.461S753.75,321.387,753.628,321.445Z" transform="translate(-747.418 -309.497)" fill="#fff" opacity="0.5"/>
        <path id="Path_716" data-name="Path 716" d="M821.058,325.846a.115.115,0,0,1-.047.015c-.032,0-.052-.032-.064-.059-.069-.147-.029-.339-.135-.461a1.541,1.541,0,0,0-.245.424l-.4-.125a.585.585,0,0,0,.074.456.661.661,0,0,0-.186.128.208.208,0,0,0-.049.211,1.084,1.084,0,0,0,.282.03,1.868,1.868,0,0,0,.029.523.094.094,0,0,0,.034.066c.029.02.066,0,.1-.015a.933.933,0,0,0,.329-.348l.147.353a.152.152,0,0,0,.066.088.1.1,0,0,0,.125-.042.324.324,0,0,0,.044-.135l.054-.336a.089.089,0,0,1,.02-.049.078.078,0,0,1,.059-.015h.422c.022-.076-.052-.145-.123-.177s-.157-.054-.194-.125c-.074-.142.115-.339.037-.461S821.181,325.784,821.058,325.846Z" transform="translate(-798.3 -312.817)" fill="#fff" opacity="0.5"/>
        <path id="Path_717" data-name="Path 717" d="M788.336,322.176a.1.1,0,0,1-.047.015c-.029,0-.052-.032-.064-.059-.066-.147-.027-.339-.133-.461a1.577,1.577,0,0,0-.245.424l-.4-.123a.6.6,0,0,0,.076.456.547.547,0,0,0-.186.128.2.2,0,0,0-.049.209.981.981,0,0,0,.28.029,1.776,1.776,0,0,0,.032.523.1.1,0,0,0,.032.066c.029.02.069,0,.1-.015a.932.932,0,0,0,.329-.348l.147.353a.144.144,0,0,0,.066.088.105.105,0,0,0,.125-.042.321.321,0,0,0,.042-.135l.056-.336a.066.066,0,0,1,.079-.064h.42c.024-.074-.049-.145-.12-.177s-.159-.054-.194-.125c-.074-.142.115-.339.034-.461S788.458,322.114,788.336,322.176Z" transform="translate(-773.609 -310.048)" fill="#fff" opacity="0.2"/>
        <path id="Path_718" data-name="Path 718" d="M778.067,326.638a.127.127,0,0,1-.049.015c-.029,0-.049-.032-.064-.059-.066-.147-.027-.339-.132-.464a1.592,1.592,0,0,0-.245.427l-.4-.125a.6.6,0,0,0,.076.456.614.614,0,0,0-.186.128.206.206,0,0,0-.049.211,1.072,1.072,0,0,0,.28.029,1.871,1.871,0,0,0,.032.523.1.1,0,0,0,.034.066c.029.02.066,0,.1-.015a.932.932,0,0,0,.329-.348l.147.353a.152.152,0,0,0,.066.088.11.11,0,0,0,.125-.042.364.364,0,0,0,.044-.135l.054-.336a.088.088,0,0,1,.02-.049.093.093,0,0,1,.059-.017h.422c.022-.076-.052-.145-.123-.177s-.157-.054-.194-.125c-.074-.142.115-.341.034-.464S778.19,326.589,778.067,326.638Z" transform="translate(-765.858 -313.414)" fill="#fff" opacity="0.3"/>
        <path id="Path_719" data-name="Path 719" d="M768.495,299.606a.105.105,0,0,1-.047.015.086.086,0,0,1-.064-.059c-.066-.147-.027-.336-.132-.461a1.578,1.578,0,0,0-.245.424l-.4-.123a.6.6,0,0,0,.076.456.586.586,0,0,0-.187.128.206.206,0,0,0-.049.211.983.983,0,0,0,.28.027,1.789,1.789,0,0,0,.032.523.106.106,0,0,0,.032.069c.03.017.069,0,.1-.017a.915.915,0,0,0,.329-.348l.147.356a.16.16,0,0,0,.066.088.11.11,0,0,0,.125-.044.3.3,0,0,0,.042-.133l.056-.339a.066.066,0,0,1,.079-.064h.42c.025-.074-.049-.145-.12-.174s-.16-.057-.194-.125c-.074-.142.115-.341.034-.464S768.617,299.547,768.495,299.606Z" transform="translate(-758.636 -293.016)" fill="#fff" opacity="0.2"/>
        <path id="Path_720" data-name="Path 720" d="M787.347,334.885a.115.115,0,0,1-.047.015c-.032,0-.052-.032-.064-.059-.069-.147-.029-.339-.135-.461a1.584,1.584,0,0,0-.245.425l-.4-.123a.329.329,0,0,1-.113.584.206.206,0,0,0-.049.211.98.98,0,0,0,.282.027,1.87,1.87,0,0,0,.029.523.089.089,0,0,0,.034.066c.029.02.066,0,.1-.015a.932.932,0,0,0,.329-.348l.147.353a.145.145,0,0,0,.066.088.1.1,0,0,0,.125-.042.325.325,0,0,0,.037-.125l.054-.336a.1.1,0,0,1,.02-.047.081.081,0,0,1,.059-.017H788c.025-.074-.052-.145-.123-.177s-.157-.054-.194-.123c-.074-.145.118-.341.037-.464S787.47,334.824,787.347,334.885Z" transform="translate(-772.861 -319.639)" fill="#fff" opacity="0.3"/>
      </g>
      <path id="Path_762" data-name="Path 762" d="M247.871,355.689c-.567-.186-3.9-2.829-4.157-4.024s1.764-12.326,1.764-12.326a4.533,4.533,0,0,1-.491-.037v-.179l.427-14.623s1.7-9.816-1.512-9.244-1.2,9.244-1.2,9.244-.366,4.4-.623,5.725c-.245,1.271-1.369,6.459-.6,8.071a1.488,1.488,0,0,0,.093.167h0s.128,5.533-1.259,6.289c-1.323.721-1.872,4.338-1.919,4.662l-.071-.032h0a3.877,3.877,0,0,1-1.023-.932c-.029-.039-.052-.079-.079-.118a5.409,5.409,0,0,0-1.664-8.439,3.5,3.5,0,0,0-.326-1.355c-.638-1.364-4.172-3.148-6.682-3.19-1.158-.037-2.108.294-2.454,1.2a6.819,6.819,0,0,0-.2,1.455,3.7,3.7,0,0,1-1.588,2.361,9.663,9.663,0,0,0-1.058-1.016,23.107,23.107,0,0,1-2.454-2.7s-5.109-5.3-5.487-6.751-5.479-10.127-6.613-8.618,3.9,8.127,3.9,8.127a14.716,14.716,0,0,0,1.7,3.207c.756.817,6.373,8.988,6.373,8.988l.27.557a4.9,4.9,0,0,0-2.667,2.675c-.564,1.836.67,3.681,1.524,5.4,1.664,3.35,1.9,7.624-.245,10.689-1.909,2.724-5.239,4-8.37,5.131a8.267,8.267,0,0,0,5.3,1.762c-.721,2.088-3.278,2.783-5.457,3.168a7.854,7.854,0,0,0,4.351,1.742,12.817,12.817,0,0,0,2.329.184h.191l.191-.012a6.2,6.2,0,0,0,.793-.1,4.164,4.164,0,0,0,2.815-1.85c.491-.856.663-2.022,1.553-2.454a1.982,1.982,0,0,1,.736-.172h.478l3.713.039h.474a3.061,3.061,0,0,0,2.7-1.07,2.981,2.981,0,0,0,.336-1.362c.079-1.178,0-2.385.032-3.573.317,2.157.648,5.521-.14,6.76a11.533,11.533,0,0,1-2.316,2.486,4.415,4.415,0,0,0-.609.623c-.12.086-.191.132-.191.132l-.076.231a4.273,4.273,0,0,0-.6,1.389.949.949,0,0,0-.047.393c.086.177-.613.9-.41,1.2a10.814,10.814,0,0,0-2.078,5.153l-3.19,4.841c-1.639,4.309-4.093,4.748-4.093,4.748s-5.764-3.867-5.921-4.056a22.2,22.2,0,0,0-2.361-1.131,2.5,2.5,0,0,0-1.134-1.038c-.756-.314-.82-1.472-.82-1.472-.093-2.734-1.7-2.945-1.7-2.945a5.222,5.222,0,0,0-3.045.542l-.231.02c-1.114.088-2.454.189-3.926.287-4.1.27-5.07,2.925-5.07,2.925a.813.813,0,0,0,.157,1.178c.66.613,4.886,0,5.065-.015a2.633,2.633,0,0,1-.962-.066c.665-.025,1.58-.049,2.361-.049h.189a10.218,10.218,0,0,0-.071,1.247c0,.788,2.172,1.291,2.172,1.291l6.613,5.889a26.156,26.156,0,0,1,6.8,4.527c2.645,2.672,4.974.378,4.974.378,2.8-.692,10.856-10.429,10.863-10.439h0c0,.285.169,9.754.491,11.656h0a1.265,1.265,0,0,0,.071.282c.378.817-.128,3.05-.346,3.995a11.063,11.063,0,0,0-.16,2.388s-3.021,11.533-2.77,12.547-1.637,5.725-1.637,5.725V427.9l.329-.015a2.145,2.145,0,0,0-.118.194l-.022.042a13.962,13.962,0,0,0,3.369.314,9.44,9.44,0,0,1,3.681,1.045,10.32,10.32,0,0,0,3.212.528c2.424.157,2.424-1.07,2.424-1.07-.277-1.671-4.108-2.231-4.226-2.245-.309-.194-.6-.407-.837-.589l-.049-.039a.878.878,0,0,0,.042-.113c.41-1.666-1.858-2.39-1.858-2.39v-.415c1.472-.753,1.764-5.943,1.764-5.943s2.208-6.414,2.518-7.482a7.091,7.091,0,0,0,0-2.675l.221-1.382a6.844,6.844,0,0,0,.474-1.134,2.805,2.805,0,0,1,.535-1.32c.346-.41-.378-1.384-.378-1.384l.631-1.634V398.4l1.472-6.51s1.544-7.58,1.009-10.061a4.268,4.268,0,0,1,.631-3.742,3.091,3.091,0,0,1-.324.147,9.374,9.374,0,0,0,.38-1.045l3.313.412v.047h1.2s-.378-4.662-.378-6.54,1.261-8.618,1.261-8.618S248.438,355.878,247.871,355.689Zm-14.706-5.44c0,.184-.017.375-.029.569l-.066.1-.123-.105-.15.233-.044.025c-.324-.167-.491-1.121-.724-.918l-.032.027c-.052-.056-.1-.076-.157-.027l-.049.044v-.221a5.4,5.4,0,0,0,1.374.177C233.168,350.184,233.165,350.216,233.165,350.248Zm11.018,21.712h.071l-.118.307C244.151,372.166,244.166,372.063,244.183,371.96Zm-12.1,55.646-.452-.115.245-.039.228.15.027.017Zm4.613-.66c-.15-.081-.3-.169-.449-.263A5.19,5.19,0,0,1,236.7,426.947Z" transform="translate(-56.88 -84.448)" fill="url(#linear-gradient-3)"/>
      <path id="Path_763" data-name="Path 763" d="M371.915,432.49l-2.972,7.744h.721l-2.795,2.228,5.045.628Z" transform="translate(-182.982 -149.615)" fill="#f86d70"/>
      <path id="Path_764" data-name="Path 764" d="M371.915,432.49l-2.972,7.744-.748-.2-1.325,2.429,5.045.628Z" transform="translate(-182.982 -149.615)" opacity="0.84"/>
      <path id="Path_765" data-name="Path 765" d="M368.44,409.4h4.66l1.71-14.073h-6.37Z" transform="translate(-184.167 -121.574)" fill="#f86d70"/>
      <path id="Path_766" data-name="Path 766" d="M368.44,409.4h4.66l1.71-14.073h-6.37Z" transform="translate(-184.167 -121.574)" opacity="0.84"/>
      <path id="Path_767" data-name="Path 767" d="M348.9,456.595l1.006-.169,2.312-.393s6.942-1.563,8.38-1.688a8.868,8.868,0,0,0,2.513-.717c.375-.162.613-.285.613-.285l-2.5-4.567-3.88-2.876a6.678,6.678,0,0,1-3.492-1.963,2.294,2.294,0,0,1-.321-2.177c.633-1.963-3.781,1.875-3.781,1.875s.042.92,0,2.093c0,.231-.022.474-.039.719a4.838,4.838,0,0,1-.039.491,7.89,7.89,0,0,1-.766,3.08C347.828,451.78,348.9,456.595,348.9,456.595Z" transform="translate(-173.724 -179.506)" fill="#fbbebe"/>
      <path id="Path_768" data-name="Path 768" d="M353.79,446.162h.1c.177,0,.319-.373.491-.393a5.1,5.1,0,0,0,3.519-1.4,2.307,2.307,0,0,1-.321-2.179c.633-1.963-3.781,1.877-3.781,1.877S353.842,444.987,353.79,446.162Z" transform="translate(-177.774 -179.831)" opacity="0.1"/>
      <path id="Path_769" data-name="Path 769" d="M331.89,420.865a5.376,5.376,0,0,0,5.379,5.379,3.406,3.406,0,0,0,.525-.027,5.379,5.379,0,1,0-5.9-5.352Z" transform="translate(-161.248 -160.099)" fill="#fbbebe"/>
      <path id="Path_770" data-name="Path 770" d="M279.144,400.458a6.59,6.59,0,0,0-.194,1.448c-.263,1.745-2.037,2.79-3.642,3.524s-3.416,1.6-3.926,3.281c-.56,1.826.663,3.651,1.512,5.362,1.654,3.335,1.889,7.585-.245,10.633-1.9,2.7-5.2,3.978-8.314,5.1a8.208,8.208,0,0,0,5.264,1.75c-.714,2.078-3.254,2.768-5.418,3.153a7.8,7.8,0,0,0,4.321,1.732,9.856,9.856,0,0,0,3.435.061,4.127,4.127,0,0,0,2.793-1.84c.491-.852.658-2.012,1.543-2.442a2.79,2.79,0,0,1,1.259-.182l3.681.037c1.146,0,2.5-.088,3.094-1.067a2.945,2.945,0,0,0,.334-1.355c.159-2.415-.3-4.964.69-7.17.3-.663-1.622-1.718-1.421-2.42a22.64,22.64,0,0,0,.859-6.851c0-1.948,1.269-3.629,2.316-5.276s1.924-3.725,1.1-5.492C287.249,400.475,280.246,397.614,279.144,400.458Z" transform="translate(-110.154 -147.857)" fill="#3f3d56"/>
      <path id="Path_771" data-name="Path 771" d="M345.13,766.464l.937.621.145.1.027.02,1.112.736,2.6.439,2.282-.157s.658-1.377-.375-1.345a2.179,2.179,0,0,1-.942-.27c-.047-.022-.1-.047-.142-.074h0c-.15-.079-.3-.167-.447-.26h0c-.307-.194-.6-.4-.829-.584-.344-.263-.572-.466-.572-.466Z" transform="translate(-171.24 -424.014)" fill="#fbbebe"/>
      <path id="Path_772" data-name="Path 772" d="M349,771.341l.145.1.027.02,1.112.736,2.6.439,2.282-.157s.658-1.377-.375-1.345a2.176,2.176,0,0,1-.942-.27c.182.142.334.294.348.427.042.348-1.688.982-1.688.982l-2.451-.638s-.415-.118-.982-.265l-.054-.015Z" transform="translate(-174.16 -428.27)" opacity="0.1"/>
      <path id="Path_773" data-name="Path 773" d="M332,770.891a13.761,13.761,0,0,0,3.345.314A9.385,9.385,0,0,1,339,772.243a10.264,10.264,0,0,0,3.19.525c2.407.157,2.407-1.062,2.407-1.062-.275-1.664-4.078-2.208-4.2-2.235h0c.047.025.245.128.447.26h0c.27.177.562.407.584.594.042.351-1.688.982-1.688.982l-2.439-.643s-.415-.118-.982-.265l-.054-.015a20.9,20.9,0,0,0-2.554-.523,1.779,1.779,0,0,0-1.7.982.3.3,0,0,0-.02.049Z" transform="translate(-161.331 -427.222)" fill="#3f3d56"/>
      <path id="Path_774" data-name="Path 774" d="M203.54,586.815l1.063.812.77-.029h.147c.66-.022,1.571-.047,2.343-.049a7.648,7.648,0,0,1,1.494.083c.53.189,1.472-3.033,1.472-3.033l-1.065-.245-.353-.081-.245-.059-.866-.2-2.626.3-1.853,1.173Z" transform="translate(-64.394 -287.271)" fill="#fbbebe"/>
      <path id="Path_775" data-name="Path 775" d="M203.54,586.822l1.063.812.77-.029a.93.93,0,0,1-.491-.439c-.687-1.907,2.721-2.721,2.721-2.721l1.588-.069.309-.012h.245l-.353-.081-.245-.059-.866-.2-2.626.3-1.833,1.17Z" transform="translate(-64.394 -287.278)" opacity="0.1"/>
      <path id="Path_776" data-name="Path 776" d="M193.954,584.663c.643.6,4.854,0,5.03-.015a2.593,2.593,0,0,1-.955-.066,1.053,1.053,0,0,1-.736-.528c-.687-1.907,2.721-2.721,2.721-2.721l1.588-.069.307-.012,3.86-.169.186-1.062s-1.254.12-3.222.277c-1.107.088-2.454.189-3.909.285-4.066.27-5.033,2.91-5.033,2.91A.813.813,0,0,0,193.954,584.663Z" transform="translate(-56.904 -284.26)" fill="#3f3d56"/>
      <path id="Path_777" data-name="Path 777" d="M386.644,340.7a1.06,1.06,0,0,0,.093.164l.937,1.377,2.439.245.027-.967.41-14.547s1.688-9.757-1.5-9.192-1.188,9.192-1.188,9.192-.363,4.38-.618,5.693C386.995,333.934,385.883,339.092,386.644,340.7Z" transform="translate(-202.368 -86.351)" fill="#fbbebe"/>
      <path id="Path_778" data-name="Path 778" d="M365.14,555.469l.694,1.19,1.553,2.658s2.817,1.031,3.538.245a10.166,10.166,0,0,0,1.121-3.19c.245-1.021.41-1.882.41-1.882Z" transform="translate(-186.339 -264.995)" fill="#fbbebe"/>
      <path id="Path_779" data-name="Path 779" d="M365.14,555.5l.694,1.19a.979.979,0,0,0,.118-.128c.785-1,4.243-.211,6.1-.15.245-1.021.41-1.882.41-1.882Z" transform="translate(-186.339 -265.025)" opacity="0.1"/>
      <path id="Path_780" data-name="Path 780" d="M221.16,584.5a7.639,7.639,0,0,1,1.494.084c.53.189,1.472-3.033,1.472-3.033l-1.423-.341,3.86-.169.186-1.062s-1.254.12-3.222.277a3.959,3.959,0,0,0-1.072.9l-.059.071A6.529,6.529,0,0,0,221.16,584.5Z" transform="translate(-77.69 -284.23)" opacity="0.1"/>
      <path id="Path_781" data-name="Path 781" d="M345.13,766.419l1.082.717c1.615-.29,3.089-.749,3.264-1.472a.211.211,0,0,0,0-.037c-.344-.263-.572-.466-.572-.466Z" transform="translate(-171.24 -423.969)" opacity="0.1"/>
      <path id="Path_782" data-name="Path 782" d="M332.09,772.019a36.335,36.335,0,0,0,4.255-.456,20.913,20.913,0,0,0-2.559-.533A1.769,1.769,0,0,0,332.09,772.019Z" transform="translate(-161.399 -428.391)" opacity="0.1"/>
      <path id="Path_783" data-name="Path 783" d="M221.64,566.468c0,.783,2.157,1.281,2.157,1.281l6.569,5.848a25.726,25.726,0,0,1,6.753,4.505c2.631,2.67,4.942.375,4.942.375,2.783-.689,10.8-10.382,10.8-10.382s.187,11.069.562,11.882-.125,3.036-.344,3.973a11.075,11.075,0,0,0-.157,2.378s-3,11.477-2.751,12.478-1.627,5.69-1.627,5.69V608.4s7.349-.282,7.754-1.938-1.843-2.378-1.843-2.378v-.4c1.472-.751,1.75-5.911,1.75-5.911s2.191-6.38,2.5-7.443a6.958,6.958,0,0,0,0-2.66l.218-1.374a6.773,6.773,0,0,0,.469-1.126,2.792,2.792,0,0,1,.532-1.313c.344-.407-.375-1.377-.375-1.377l.626-1.627v-1.782l1.472-6.473s1.534-7.538,1-10.007a4.246,4.246,0,0,1,.626-3.722c-2.51,1.318-3.777-1.61-4.191-2.869-.105-.326-.157-.54-.157-.54a17.743,17.743,0,0,0-6.657-.982,7.772,7.772,0,0,0-1.912.4c-3.565,1.283-4.127,6.6-4.127,6.6l-3.158,4.817c-1.627,4.284-4.066,4.724-4.066,4.724s-5.722-3.848-5.889-4.034a23.443,23.443,0,0,0-2.346-1.126,2.475,2.475,0,0,0-1.126-1.033c-.751-.312-.812-1.472-.812-1.472-.093-2.721-1.688-2.945-1.688-2.945C221.608,559.972,221.64,565.685,221.64,566.468Z" transform="translate(-78.052 -264.953)" fill="#2f2e41"/>
      <rect id="Rectangle_336" data-name="Rectangle 336" width="3.377" height="10.476" transform="translate(178.801 286.222) rotate(180)" fill="#f86d70"/>
      <rect id="Rectangle_337" data-name="Rectangle 337" width="3.377" height="10.476" transform="translate(178.801 286.222) rotate(180)" opacity="0.81"/>
      <path id="Path_784" data-name="Path 784" d="M387.439,411.15a.156.156,0,0,0,0,.025,1.068,1.068,0,0,0,.093.164l.937,1.377,2.439.245.027-.967A9.8,9.8,0,0,1,387.439,411.15Z" transform="translate(-203.166 -156.829)" opacity="0.1"/>
      <path id="Path_785" data-name="Path 785" d="M378.1,411.92s.125,5.5-1.252,6.255-1.912,4.662-1.912,4.662,4.172,2.743,5.1,3.948,3.065,4.083,2.626,4.773,1.065,3.813,1.065,3.813-2.753,5.629-2.128,7.757.687,7.757.687,7.757h1.19s-.375-4.63-.375-6.505,1.249-8.569,1.249-8.569.564-6.569,0-6.756-3.877-2.815-4.127-4,1.752-12.269,1.752-12.269A10.862,10.862,0,0,1,378.1,411.92Z" transform="translate(-193.735 -157.41)" fill="#2f2e41"/>
      <path id="Path_786" data-name="Path 786" d="M351.12,465.576a5.354,5.354,0,0,0,.817,2.145l2.312-.393s6.942-1.563,8.38-1.688a8.87,8.87,0,0,0,2.513-.717,11.063,11.063,0,0,0-3.1-5.089l-.883-.817a15,15,0,0,0-2.093-1.62,14.705,14.705,0,0,0-2.348-1.227c.1.086,7.386,6.306,5.791,7.526s-5.889-1.752-5.889-1.752l-4.883-4.194-.177-.155-.282.439a4.587,4.587,0,0,1,.42.2,7.167,7.167,0,0,1,3.435,4.27C356.128,465.885,351.12,465.576,351.12,465.576Z" transform="translate(-175.76 -190.801)" opacity="0.1"/>
      <path id="Path_787" data-name="Path 787" d="M345,555.366s4.628,2.564,5.752,1.124A1.913,1.913,0,0,1,352.16,556c-.106-.326-.157-.54-.157-.54a17.745,17.745,0,0,0-6.657-.982C345.135,555.023,345,555.366,345,555.366Z" transform="translate(-171.141 -264.953)" fill="#444053"/>
      <path id="Path_788" data-name="Path 788" d="M347.13,457.722l2.25-1.147a13.659,13.659,0,0,0,1.8-.692c.453-.267,1.108.411,1.108.411h0a14.862,14.862,0,0,1,4.444,2.842l.881.817c2.316,2.145,2.839,2.145,2.918,5.3a4.443,4.443,0,0,1-.449,2.1c-.751.736-1.276,6.081-1.161,6.706s-1.874,9.686-1.383,11.188-4.907-1.356-6.029.082S345,481.147,345,481.147s2.564-6.567,3.19-7.006,1.377-3.813,0-5.379a5.842,5.842,0,0,1-1.5-3.065s1-.11,0-3.487c-.571-1.979,2.026-3.189.155-4.049Z" transform="translate(-171.141 -190.923)" fill="url(#linear-gradient-2)"/>
      <path id="Path_789" data-name="Path 789" d="M365.048,507.12s-1.941,3.659-4.451,4.611c-.081.029-.159.056-.245.081C357.731,512.609,365.245,508.246,365.048,507.12Z" transform="translate(-182.307 -229.249)" opacity="0.1"/>
      <path id="Path_790" data-name="Path 790" d="M258.136,349.871a14.661,14.661,0,0,0,1.688,3.19c.751.815,6.316,8.947,6.316,8.947l.471.982.4.839,3.566-.375.245-1.438s-.049-.064-.137-.167a16.668,16.668,0,0,0-1.99-2.086,23.1,23.1,0,0,1-2.439-2.7s-5.065-5.254-5.44-6.692-5.443-10.061-6.567-8.571S258.136,349.871,258.136,349.871Z" transform="translate(-102.54 -104.367)" fill="#fbbebe"/>
      <g id="Group_851" data-name="Group 851" transform="translate(159.67 251.406)" opacity="0.1">
        <path id="Path_791" data-name="Path 791" d="M293.452,532.808a2.8,2.8,0,0,0-1.259.182c-.883.432-1.05,1.59-1.541,2.454a4.131,4.131,0,0,1-2.795,1.838,6.207,6.207,0,0,1-.677.1,7.693,7.693,0,0,0,2.15-.1,4.131,4.131,0,0,0,2.795-1.838c.491-.854.658-2.012,1.541-2.454a1.964,1.964,0,0,1,.736-.172Z" transform="translate(-287.18 -500.031)"/>
        <path id="Path_792" data-name="Path 792" d="M334.692,413.222c0-1.951,1.269-3.632,2.314-5.278s1.924-3.725,1.1-5.492c-.707-1.509-4.967-3.534-7.425-3.131,2.407.309,5.374,1.894,5.953,3.131.827,1.767-.052,3.845-1.1,5.492s-2.319,3.327-2.314,5.278a22.91,22.91,0,0,1-.861,6.849c-.2.7,1.718,1.757,1.423,2.419-1,2.208-.53,4.758-.69,7.173a2.972,2.972,0,0,1-.336,1.352,2.856,2.856,0,0,1-2.476,1.06h.856c1.144,0,2.5-.086,3.092-1.067a2.972,2.972,0,0,0,.336-1.352c.159-2.415-.307-4.967.69-7.173.3-.663-1.622-1.718-1.423-2.42A22.633,22.633,0,0,0,334.692,413.222Z" transform="translate(-319.704 -399.269)"/>
      </g>
      <path id="Path_793" data-name="Path 793" d="M305.12,425.131l.4.839,3.565-.375.245-1.438s-.049-.064-.137-.167C308.818,424.179,305.969,425.546,305.12,425.131Z" transform="translate(-141.047 -166.518)" opacity="0.1"/>
      <path id="Path_794" data-name="Path 794" d="M318.911,435.065s-.876-1.377-1.377-1-.694-1.126-.982-.876-1.124.947-1.472-.029c-.272-.775-3.237-5.678-4.439-7.654l-.5-.824s-3.376,1.691-4.189,1.126V427l.687.061,3.681,6.871s1.158,1.84,1.08,2.483,1.485,3.458,1.735,3.646,2.945,3.315,2.945,3.315,1.377,6.753.186,8.63a12.808,12.808,0,0,1-3.251,3.251,10.549,10.549,0,0,0-.53,2c.091.186-.721,1-.346,1.251s.876,2,.876,2,1.752-2.815,2.7-3.254,2.159-6.191,2.159-6.191.346-3.394.373-5.582S318.161,435.065,318.911,435.065Z" transform="translate(-141.674 -167.038)" opacity="0.1"/>
      <path id="Path_795" data-name="Path 795" d="M318.141,435.065s-.874-1.377-1.374-1-.7-1.126-.982-.876-1.121.947-1.472-.029c-.275-.775-3.239-5.678-4.439-7.654-.312-.508-.5-.824-.5-.824s-3.377,1.691-4.191,1.126V427l.689.061,3.681,6.871s1.161,1.84,1.08,2.483,1.472,3.458,1.735,3.646,2.945,3.315,2.945,3.315,1.377,6.753.189,8.63a11.391,11.391,0,0,1-2.265,2.505,4.377,4.377,0,0,0-1.472,2.361.933.933,0,0,0-.044.393c.091.189-.721,1-.346,1.251s.874,2,.874,2,1.752-2.815,2.7-3.254,2.162-6.191,2.162-6.191.343-3.394.373-5.583S317.405,435.065,318.141,435.065Z" transform="translate(-141.093 -167.038)" fill="#2f2e41"/>
      <path id="Path_796" data-name="Path 796" d="M322.091,583a12.534,12.534,0,0,1,3.681,1.251c1.053.761-4-1.188-4-1.188Z" transform="translate(-153.612 -286.509)" opacity="0.1"/>
      <path id="Path_797" data-name="Path 797" d="M348.83,610.1s2.741,2.282,2.25,4.346-1.757,7.256-1.757,7.256Z" transform="translate(-174.031 -306.959)" opacity="0.1"/>
      <path id="Path_798" data-name="Path 798" d="M240,592.19s-3.862.422-3.612.923,3.612-.461,3.612-.461Z" transform="translate(-89.17 -293.444)" opacity="0.1"/>
      <path id="Path_799" data-name="Path 799" d="M366.037,665.694s.245.314-1.188,0-.375-1.274-.375-1.274Z" transform="translate(-185.553 -347.949)" opacity="0.1"/>
      <path id="Path_800" data-name="Path 800" d="M360.191,686.774a9.128,9.128,0,0,1-3.016,0C356.122,686.463,360.191,686.774,360.191,686.774Z" transform="translate(-180.198 -364.714)" opacity="0.1"/>
      <path id="Path_801" data-name="Path 801" d="M338.152,755.685s-.343-.375-2.064.312-2.407.719-2.908.491S338.152,755.685,338.152,755.685Z" transform="translate(-162.198 -416.742)" opacity="0.1"/>
      <path id="Path_802" data-name="Path 802" d="M353.819,590l-2.439,3.394S352.693,590.427,353.819,590Z" transform="translate(-175.956 -291.791)" opacity="0.1"/>
      <path id="Path_803" data-name="Path 803" d="M331.081,462.9s-.105,1.126-1.678,1.563-1.872.8-1.872.8" transform="translate(-157.958 -195.88)" opacity="0.1"/>
      <path id="Path_804" data-name="Path 804" d="M312.293,429.62a6.733,6.733,0,0,1-4.243,1.161" transform="translate(-143.259 -170.766)" opacity="0.1"/>
      <path id="Path_805" data-name="Path 805" d="M331.78,554.146s.606.38,2.061-1.286" transform="translate(-161.165 -263.765)" opacity="0.1"/>
      <path id="Path_806" data-name="Path 806" d="M387.71,480.035a1.066,1.066,0,0,0-.351-.825l-.407-.491a1.886,1.886,0,0,0-.268-.275c-.245-.189-.559-.245-.815-.415" transform="translate(-201.982 -207.297)" opacity="0.1"/>
      <g id="celeb1">
        <path id="Path_845" data-name="Path 845" d="M299.354,157.1a.778.778,0,0,0-1.266.9c.145.218.3.432.454.633a25.119,25.119,0,0,1,3.593,8.429,3.981,3.981,0,0,1,.164,2.223,13.9,13.9,0,0,0-.378-5.8,36.019,36.019,0,0,0-2.054-5.479A4.872,4.872,0,0,0,299.354,157.1Z" transform="translate(-135.635 35.123)" fill="#2baced" opacity="0.5"/>
        <path id="Path_846" data-name="Path 846" d="M252.239,179.248a.97.97,0,0,0-.162,1.931c.321.025.648.032.957.042,3.776.1,7.349,1.472,10.782,2.945a4.586,4.586,0,0,1,2.208,1.541,16.2,16.2,0,0,0-5.752-4.073,42.632,42.632,0,0,0-6.783-2.191,5.782,5.782,0,0,0-1.251-.194Z" transform="translate(-100.384 18.168)" fill="#2baced"/>
        <path id="Path_847" data-name="Path 847" d="M255.17,198c-.78.029-.6,1.136.182,1.141.2,0,.41,0,.6-.015a22.169,22.169,0,0,1,7.19,1.283,3.677,3.677,0,0,1,1.617.815,12.96,12.96,0,0,0-4.2-2.157,31.868,31.868,0,0,0-4.574-1.006A4.138,4.138,0,0,0,255.17,198Z" transform="translate(-102.975 4.021)" fill="#2baced" opacity="0.2"/>
        <path id="Path_848" data-name="Path 848" d="M320.676,250.823c.221.736,1.252.3,1.063-.459-.049-.2-.11-.4-.167-.584a22.115,22.115,0,0,1-.54-7.283,3.692,3.692,0,0,1,.388-1.767,12.933,12.933,0,0,0-1.045,4.606,31.987,31.987,0,0,0,.159,4.68A4.13,4.13,0,0,0,320.676,250.823Z" transform="translate(-152.54 -28.227)" fill="#2baced" opacity="0.5"/>
        <path id="Path_849" data-name="Path 849" d="M261.364,153.84c-.469-.081-.5.6-.037.7.123.027.245.049.363.069a13.5,13.5,0,0,1,4.132,1.681,2.25,2.25,0,0,1,.861.69,7.9,7.9,0,0,0-2.235-1.821,19.671,19.671,0,0,0-2.6-1.183A2.64,2.64,0,0,0,261.364,153.84Z" transform="translate(-107.749 37.346)" fill="#2baced" opacity="0.2"/>
        <path id="Path_850" data-name="Path 850" d="M231.362,220.428c-1.19.611-.184,2.294,1.038,1.735.319-.145.631-.309.93-.464,3.634-1.885,7.852-2.579,12.024-3.114a5.869,5.869,0,0,1,3.048.157,20.434,20.434,0,0,0-7.953-.479,53.351,53.351,0,0,0-7.766,1.671A6.873,6.873,0,0,0,231.362,220.428Z" transform="translate(-84.986 -11.14)" fill="#2baced"/>
        <path id="Path_851" data-name="Path 851" d="M246.011,235.243c-.854.8.491,1.737,1.377.982.245-.2.459-.412.672-.611,2.606-2.454,6.049-4.189,9.477-5.791a22.024,22.024,0,0,1,5.229-.775c-2.415.216-7.347.982-9.541,1.963A52.818,52.818,0,0,0,247,234.5,6.715,6.715,0,0,0,246.011,235.243Z" transform="translate(-96.237 -19.411)" fill="#2baced" opacity="0.5"/>
        <path id="Path_852" data-name="Path 852" d="M271.633,251.87c-.245,1.141,1.382,1.158,1.686.017.078-.3.142-.6.2-.886.753-3.492,2.6-6.883,4.505-10.152a22.11,22.11,0,0,1,3.862-3.61c-1.865,1.551-5.494,4.976-6.731,7.043a52.811,52.811,0,0,0-3.136,6.412A6.665,6.665,0,0,0,271.633,251.87Z" transform="translate(-115.759 -25.594)" fill="#2baced"/>
        <path id="Path_853" data-name="Path 853" d="M316.142,131.8c-.584-1.188-2.248-.211-1.718,1.006.137.319.292.631.439.928,1.794,3.627,2.41,7.823,2.871,11.948a5.87,5.87,0,0,1-.2,3.021,20.689,20.689,0,0,0,.591-7.877,51.961,51.961,0,0,0-1.519-7.722A6.99,6.99,0,0,0,316.142,131.8Z" transform="translate(-147.991 54.375)" fill="#2baced"/>
        <path id="Path_854" data-name="Path 854" d="M279.613,138.347a.215.215,0,0,0,.1.029c.066,0,.11-.064.137-.123.145-.317.061-.736.287-.994a3.437,3.437,0,0,1,.542.913l.854-.265a1.264,1.264,0,0,1-.162.982,1.27,1.27,0,0,1,.4.272.444.444,0,0,1,.105.454,2.263,2.263,0,0,1-.6.059,4,4,0,0,1-.064,1.121.209.209,0,0,1-.074.145c-.061.039-.145,0-.209-.034a1.963,1.963,0,0,1-.7-.736l-.319.758a.361.361,0,0,1-.14.191.231.231,0,0,1-.267-.093.65.65,0,0,1-.093-.287l-.12-.724a.16.16,0,0,0-.039-.1.172.172,0,0,0-.125-.037h-.905c-.052-.16.108-.309.263-.375s.336-.12.415-.27c.157-.3-.245-.736-.076-.982C279.022,137.913,279.351,138.217,279.613,138.347Z" transform="translate(-120.741 49.852)" fill="#2baced"/>
        <path id="Path_855" data-name="Path 855" d="M341.607,157.1a.778.778,0,0,1,1.266.9c-.145.218-.3.432-.454.633a25.071,25.071,0,0,0-3.593,8.429,3.96,3.96,0,0,0-.167,2.223,13.9,13.9,0,0,1,.38-5.8,36.032,36.032,0,0,1,2.054-5.479,4.872,4.872,0,0,1,.513-.905Z" transform="translate(-166.239 35.123)" fill="#2baced" opacity="0.5"/>
        <path id="Path_856" data-name="Path 856" d="M357.1,179.248a.97.97,0,0,1,.162,1.931c-.321.025-.645.032-.955.042-3.779.1-7.349,1.472-10.782,2.945a4.586,4.586,0,0,0-2.208,1.541,16.161,16.161,0,0,1,5.752-4.073,44,44,0,0,1,6.773-2.2A5.779,5.779,0,0,1,357.1,179.248Z" transform="translate(-169.874 18.168)" fill="#2baced"/>
        <path id="Path_857" data-name="Path 857" d="M368.612,198c.778.029.6,1.136-.182,1.141-.2,0-.41,0-.606-.015a22.154,22.154,0,0,0-7.187,1.283,3.677,3.677,0,0,0-1.617.815,12.96,12.96,0,0,1,4.2-2.157,31.794,31.794,0,0,1,4.574-1.006A4.139,4.139,0,0,1,368.612,198Z" transform="translate(-181.721 4.021)" fill="#2baced" opacity="0.5"/>
        <path id="Path_858" data-name="Path 858" d="M375.968,153.84c.471-.081.506.6.039.7-.123.027-.245.049-.366.069a13.483,13.483,0,0,0-4.13,1.681,2.251,2.251,0,0,0-.861.69,7.864,7.864,0,0,1,2.236-1.821,19.643,19.643,0,0,1,2.6-1.183A2.765,2.765,0,0,1,375.968,153.84Z" transform="translate(-190.497 37.346)" fill="#2baced" opacity="0.2"/>
        <path id="Path_859" data-name="Path 859" d="M339.961,268.787c-.106.464-.751.233-.665-.245.022-.123.049-.245.076-.361a13.5,13.5,0,0,0,.044-4.459,2.247,2.247,0,0,0-.307-1.062,7.9,7.9,0,0,1,.82,2.783,19.517,19.517,0,0,1,.086,2.856A2.632,2.632,0,0,1,339.961,268.787Z" transform="translate(-166.697 -44.776)" fill="#2baced" opacity="0.2"/>
        <path id="Path_860" data-name="Path 860" d="M369.133,252.512c.366.618-.533.577-.927-.044-.106-.162-.2-.326-.292-.491a33.446,33.446,0,0,0-4.52-5.587,6.266,6.266,0,0,0-1.4-1.21,21.994,21.994,0,0,1,3.683,3.146c1.1,1.148,2.066,2.343,3.016,3.536A6.008,6.008,0,0,1,369.133,252.512Z" transform="translate(-183.962 -31.585)" fill="#2baced" opacity="0.5"/>
        <path id="Path_861" data-name="Path 861" d="M258.057,252.512c-.366.618.535.577.93-.044.1-.162.2-.326.29-.491a33.349,33.349,0,0,1,4.522-5.587,6.257,6.257,0,0,1,1.4-1.21,22.194,22.194,0,0,0-3.681,3.141c-1.1,1.148-2.066,2.343-3.013,3.536a6.045,6.045,0,0,0-.449.655Z" transform="translate(-105.469 -31.586)" fill="#2baced" opacity="0.2"/>
        <path id="Path_862" data-name="Path 862" d="M306.645,268.787c.105.464.748.233.665-.245-.022-.123-.052-.245-.079-.361a13.508,13.508,0,0,1-.042-4.459,2.275,2.275,0,0,1,.3-1.062,7.9,7.9,0,0,0-.82,2.783,19.517,19.517,0,0,0-.088,2.856A2.625,2.625,0,0,0,306.645,268.787Z" transform="translate(-142.141 -44.776)" fill="#2baced" opacity="0.2"/>
        <path id="Path_863" data-name="Path 863" d="M360.64,172.83c.469-.081.5.6.037.707-.123.027-.245.047-.363.066a13.558,13.558,0,0,0-4.132,1.681,2.233,2.233,0,0,0-.861.692,7.9,7.9,0,0,1,2.235-1.823,19.359,19.359,0,0,1,2.6-1.18A2.472,2.472,0,0,1,360.64,172.83Z" transform="translate(-178.929 23.016)" fill="#2baced" opacity="0.2"/>
        <path id="Path_864" data-name="Path 864" d="M347.619,135.386c.4-.245.692.371.3.64-.105.071-.211.135-.314.2a13.5,13.5,0,0,0-3.2,3.1,2.253,2.253,0,0,0-.542.964,7.933,7.933,0,0,1,1.394-2.525,19.69,19.69,0,0,1,1.963-2.071A2.654,2.654,0,0,1,347.619,135.386Z" transform="translate(-170.281 51.309)" fill="#2baced" opacity="0.2"/>
        <path id="Path_865" data-name="Path 865" d="M369.43,220.428c1.19.611.184,2.294-1.038,1.735-.319-.145-.633-.309-.93-.464-3.637-1.885-7.852-2.579-12.024-3.114a5.869,5.869,0,0,0-3.048.157,20.431,20.431,0,0,1,7.953-.479,53.35,53.35,0,0,1,7.767,1.671,6.935,6.935,0,0,1,1.32.493Z" transform="translate(-176.718 -11.14)" fill="#2baced"/>
        <path id="Path_866" data-name="Path 866" d="M356.445,235.213c.854.8-.491,1.737-1.377.982-.245-.2-.459-.412-.672-.611-2.613-2.456-6.049-4.2-9.484-5.8a22.025,22.025,0,0,0-5.232-.775c2.417.216,7.349.982,9.543,1.963a52.823,52.823,0,0,1,6.223,3.492A6.72,6.72,0,0,1,356.445,235.213Z" transform="translate(-167.127 -19.381)" fill="#2baced" opacity="0.5"/>
        <path id="Path_867" data-name="Path 867" d="M341.278,253.581c.105,1.163-1.516.982-1.674-.194-.042-.307-.066-.614-.093-.9-.309-3.561-1.718-7.156-3.19-10.638a22.171,22.171,0,0,0-3.381-4.066c1.656,1.774,4.827,5.627,5.8,7.83a53.1,53.1,0,0,1,2.309,6.753A6.687,6.687,0,0,1,341.278,253.581Z" transform="translate(-162.041 -26.001)" fill="#2baced"/>
        <path id="Path_868" data-name="Path 868" d="M363.853,138.347a.208.208,0,0,1-.1.029c-.064,0-.108-.064-.135-.123-.147-.317-.064-.736-.287-.994a3.435,3.435,0,0,0-.542.913l-.856-.265a1.274,1.274,0,0,0,.162.982,1.3,1.3,0,0,0-.4.272.447.447,0,0,0-.1.454,2.263,2.263,0,0,0,.6.059,3.908,3.908,0,0,0,.064,1.121.209.209,0,0,0,.074.145c.061.039.145,0,.209-.034a2.01,2.01,0,0,0,.7-.736l.319.758a.336.336,0,0,0,.14.191.231.231,0,0,0,.267-.093.684.684,0,0,0,.093-.287l.12-.724a.16.16,0,0,1,.039-.1.172.172,0,0,1,.125-.037h.905c.052-.16-.108-.309-.263-.375s-.339-.12-.415-.27c-.157-.3.245-.736.076-.982C364.447,137.913,364.125,138.217,363.853,138.347Z" transform="translate(-183.641 49.852)" fill="#2baced"/>
        <path id="Path_869" data-name="Path 869" d="M374.358,281.785a.221.221,0,0,1-.1.032c-.066,0-.11-.066-.137-.125-.145-.317-.061-.736-.285-.982a3.4,3.4,0,0,0-.545.91l-.854-.265a1.261,1.261,0,0,0,.162.982,1.277,1.277,0,0,0-.4.275.444.444,0,0,0-.106.452,2.165,2.165,0,0,0,.6.061,4,4,0,0,0,.064,1.121.214.214,0,0,0,.074.142.206.206,0,0,0,.209-.034,1.963,1.963,0,0,0,.7-.736l.319.761a.338.338,0,0,0,.142.189.228.228,0,0,0,.265-.091.7.7,0,0,0,.1-.29l.118-.721a.172.172,0,0,1,.039-.1.187.187,0,0,1,.128-.037h.9c.052-.162-.108-.309-.263-.378s-.336-.118-.415-.267c-.157-.307.245-.736.076-.994C374.95,281.35,374.621,281.655,374.358,281.785Z" transform="translate(-191.567 -58.397)" fill="#2baced" opacity="0.2"/>
        <path id="Path_870" data-name="Path 870" d="M403.866,185.687a.216.216,0,0,1-.1.029c-.066,0-.11-.066-.137-.125-.145-.314-.061-.736-.287-.982a3.456,3.456,0,0,0-.542.91l-.854-.263a.7.7,0,0,1-.24,1.254.439.439,0,0,0-.105.451,2.165,2.165,0,0,0,.6.061,3.994,3.994,0,0,0,.064,1.121.209.209,0,0,0,.074.145c.061.039.145,0,.209-.037a1.946,1.946,0,0,0,.7-.736l.319.758a.346.346,0,0,0,.14.189.226.226,0,0,0,.267-.091.651.651,0,0,0,.093-.287l.12-.724a.16.16,0,0,1,.039-.1.172.172,0,0,1,.125-.037h.906c.052-.16-.108-.309-.263-.378s-.336-.118-.415-.267c-.157-.3.245-.736.076-.982C404.458,185.243,404.134,185.55,403.866,185.687Z" transform="translate(-213.834 14.121)" fill="#2baced"/>
        <path id="Path_871" data-name="Path 871" d="M283.107,294.824a.29.29,0,0,1-.14.042c-.091,0-.152-.091-.191-.174-.2-.439-.086-1.011-.4-1.382a4.75,4.75,0,0,0-.756,1.269l-1.2-.363a1.779,1.779,0,0,0,.226,1.364,1.849,1.849,0,0,0-.562.38.626.626,0,0,0-.145.631,3.036,3.036,0,0,0,.842.083,5.587,5.587,0,0,0,.088,1.566.287.287,0,0,0,.1.2c.086.054.2,0,.29-.049a2.763,2.763,0,0,0,.982-1.038l.444,1.058a.491.491,0,0,0,.2.265.319.319,0,0,0,.371-.13.9.9,0,0,0,.133-.4l.164-1.006a.262.262,0,0,1,.056-.142.245.245,0,0,1,.177-.052c.42-.012.839-.015,1.259-.012.074-.223-.15-.432-.366-.525s-.469-.164-.577-.373c-.221-.427.346-1.018.106-1.384C283.934,294.216,283.475,294.64,283.107,294.824Z" transform="translate(-122.025 -67.905)" fill="#2baced"/>
        <path id="Path_872" data-name="Path 872" d="M234.057,187.184a.292.292,0,0,1-.142.042c-.088,0-.152-.091-.189-.174-.2-.439-.086-1.011-.4-1.382a4.755,4.755,0,0,0-.758,1.269l-1.19-.368a1.769,1.769,0,0,0,.223,1.364,1.839,1.839,0,0,0-.559.38.626.626,0,0,0-.14.626,3.037,3.037,0,0,0,.842.083,5.5,5.5,0,0,0,.091,1.566.3.3,0,0,0,.1.2c.088.056.2,0,.292-.049a2.763,2.763,0,0,0,.982-1.038l.442,1.058a.476.476,0,0,0,.2.265.321.321,0,0,0,.371-.128.918.918,0,0,0,.13-.4l.167-1.006a.245.245,0,0,1,.054-.142.26.26,0,0,1,.177-.051c.42-.012.839-.015,1.261-.012.071-.223-.152-.432-.366-.525s-.471-.164-.579-.373c-.218-.427.348-1.018.108-1.384C234.881,186.578,234.422,187,234.057,187.184Z" transform="translate(-85.019 13.322)" fill="#2baced"/>
        <path id="Path_873" data-name="Path 873" d="M387.578,256.017a.211.211,0,0,1-.074.022.145.145,0,0,1-.1-.093c-.108-.233-.044-.537-.211-.736a2.534,2.534,0,0,0-.4.675l-.633-.2a.949.949,0,0,0,.12.724.983.983,0,0,0-.3.2.329.329,0,0,0-.079.334,1.526,1.526,0,0,0,.447.044,2.945,2.945,0,0,0,.049.832.152.152,0,0,0,.054.106c.047.029.105,0,.155-.025a1.5,1.5,0,0,0,.52-.552l.245.562a.245.245,0,0,0,.1.14.172.172,0,0,0,.2-.069.491.491,0,0,0,.069-.214l.088-.535a.13.13,0,0,1,.029-.074.12.12,0,0,1,.093-.027h.67c.037-.118-.081-.228-.2-.28s-.245-.086-.307-.2c-.115-.226.186-.54.059-.736S387.772,255.919,387.578,256.017Z" transform="translate(-201.992 -39.154)" fill="#2baced" opacity="0.2"/>
        <path id="Path_874" data-name="Path 874" d="M320.9,294.525a.135.135,0,0,1-.074.022c-.049,0-.081-.047-.1-.091-.108-.245-.047-.537-.214-.736a2.615,2.615,0,0,0-.4.675l-.631-.2a.942.942,0,0,0,.118.736,1.025,1.025,0,0,0-.3.2.331.331,0,0,0-.078.336,1.717,1.717,0,0,0,.447.044,2.963,2.963,0,0,0,.049.832.152.152,0,0,0,.054.105c.047.029.108,0,.155-.027a1.472,1.472,0,0,0,.52-.552l.245.562a.245.245,0,0,0,.1.142.172.172,0,0,0,.2-.069.491.491,0,0,0,.069-.214l.088-.535a.138.138,0,0,1,.029-.076.155.155,0,0,1,.093-.027h.67c.037-.12-.081-.231-.194-.28a.575.575,0,0,1-.307-.2c-.118-.226.184-.54.056-.736S321.093,294.427,320.9,294.525Z" transform="translate(-151.674 -68.214)" fill="#2baced" opacity="0.2"/>
        <path id="Path_875" data-name="Path 875" d="M256.373,159.775a.13.13,0,0,1-.074.022c-.049,0-.081-.049-.1-.091-.108-.245-.047-.537-.211-.736a2.486,2.486,0,0,0-.4.675l-.633-.2a.935.935,0,0,0,.12.736.96.96,0,0,0-.3.2.331.331,0,0,0-.076.336,1.7,1.7,0,0,0,.447.044,2.96,2.96,0,0,0,.047.832.152.152,0,0,0,.054.106c.047.029.108,0,.155-.027a1.443,1.443,0,0,0,.52-.552l.245.562a.246.246,0,0,0,.106.142.169.169,0,0,0,.2-.069.49.49,0,0,0,.069-.213l.088-.535a.138.138,0,0,1,.029-.076.155.155,0,0,1,.093-.027h.67c.039-.12-.081-.231-.194-.28a.575.575,0,0,1-.307-.2c-.118-.226.184-.54.056-.736S256.569,159.679,256.373,159.775Z" transform="translate(-102.984 33.47)" fill="#2baced" opacity="0.5"/>
        <path id="Path_876" data-name="Path 876" d="M290.717,235.7a.144.144,0,0,1-.076.022c-.047,0-.081-.049-.1-.091-.108-.245-.047-.537-.211-.736a2.55,2.55,0,0,0-.4.675l-.633-.2a.957.957,0,0,0,.12.736.92.92,0,0,0-.3.2.331.331,0,0,0-.078.336,1.717,1.717,0,0,0,.447.044,2.944,2.944,0,0,0,.047.829.164.164,0,0,0,.054.108c.047.029.108,0,.155-.027a1.472,1.472,0,0,0,.52-.552l.245.562a.263.263,0,0,0,.106.142.167.167,0,0,0,.2-.069.491.491,0,0,0,.071-.214l.088-.535a.123.123,0,0,1,.029-.076.145.145,0,0,1,.093-.027h.667c.039-.12-.079-.231-.194-.28a.566.566,0,0,1-.307-.2c-.115-.226.187-.54.056-.736S290.911,235.609,290.717,235.7Z" transform="translate(-128.9 -23.828)" fill="#2baced" opacity="0.5"/>
        <path id="Path_877" data-name="Path 877" d="M265.787,206.1a.135.135,0,0,1-.074.022c-.049,0-.081-.049-.1-.091-.108-.245-.047-.537-.213-.736a2.614,2.614,0,0,0-.4.675l-.631-.2a.945.945,0,0,0,.118.736.981.981,0,0,0-.3.2.331.331,0,0,0-.079.336,1.718,1.718,0,0,0,.447.044,2.947,2.947,0,0,0,.049.829.155.155,0,0,0,.054.108c.047.029.108,0,.155-.027a1.472,1.472,0,0,0,.52-.552l.245.562a.245.245,0,0,0,.1.14.167.167,0,0,0,.2-.066.49.49,0,0,0,.069-.213l.088-.535a.138.138,0,0,1,.029-.076.154.154,0,0,1,.093-.027h.67c.037-.12-.081-.231-.194-.28a.575.575,0,0,1-.307-.2c-.118-.226.184-.54.056-.736S265.983,206.009,265.787,206.1Z" transform="translate(-110.087 -1.491)" fill="#2baced" opacity="0.5"/>
        <path id="Path_878" data-name="Path 878" d="M372.847,213.075a.143.143,0,0,1-.074.022c-.049,0-.081-.049-.1-.091-.106-.245-.044-.537-.211-.736a2.616,2.616,0,0,0-.4.675l-.631-.2a.944.944,0,0,0,.118.736.92.92,0,0,0-.3.2.332.332,0,0,0-.079.336,1.718,1.718,0,0,0,.447.044,2.941,2.941,0,0,0,.049.829.154.154,0,0,0,.054.108c.047.029.108,0,.155-.027a1.5,1.5,0,0,0,.52-.552l.245.562a.245.245,0,0,0,.1.14.167.167,0,0,0,.2-.066.49.49,0,0,0,.069-.214l.088-.535a.137.137,0,0,1,.029-.076.145.145,0,0,1,.093-.027h.67c.037-.118-.081-.228-.194-.277a.575.575,0,0,1-.307-.2c-.118-.226.184-.54.057-.736S373.044,212.979,372.847,213.075Z" transform="translate(-190.876 -6.751)" fill="#2baced" opacity="0.5"/>
        <path id="Path_879" data-name="Path 879" d="M320.9,207.247a.2.2,0,0,1-.074.022c-.049,0-.081-.049-.1-.093-.108-.233-.047-.537-.214-.736a2.535,2.535,0,0,0-.4.675l-.631-.2a.937.937,0,0,0,.118.724,1.031,1.031,0,0,0-.3.2.329.329,0,0,0-.079.334,1.528,1.528,0,0,0,.447.044,2.941,2.941,0,0,0,.049.832.152.152,0,0,0,.054.106c.047.029.108,0,.155-.025a1.472,1.472,0,0,0,.52-.552l.245.562a.245.245,0,0,0,.1.14.172.172,0,0,0,.2-.069.49.49,0,0,0,.069-.211l.088-.535a.133.133,0,0,1,.029-.076.128.128,0,0,1,.093-.027h.67c.037-.118-.081-.228-.194-.28s-.245-.086-.307-.2c-.118-.228.184-.542.056-.736S321.094,207.149,320.9,207.247Z" transform="translate(-151.675 -2.352)" fill="#2baced" opacity="0.2"/>
        <path id="Path_880" data-name="Path 880" d="M304.6,214.337a.169.169,0,0,1-.074.022c-.049,0-.081-.049-.1-.093-.108-.233-.044-.535-.211-.736a2.575,2.575,0,0,0-.4.675l-.633-.2a.957.957,0,0,0,.12.736.919.919,0,0,0-.3.2.329.329,0,0,0-.079.334,1.617,1.617,0,0,0,.447.047,2.946,2.946,0,0,0,.049.829.147.147,0,0,0,.054.106.152.152,0,0,0,.155-.025,1.5,1.5,0,0,0,.52-.552l.245.562a.245.245,0,0,0,.1.14.174.174,0,0,0,.2-.066.491.491,0,0,0,.069-.213l.088-.535a.138.138,0,0,1,.029-.076.12.12,0,0,1,.093-.027h.67c.037-.118-.081-.228-.194-.277a.575.575,0,0,1-.307-.2c-.118-.226.184-.54.056-.736S304.794,214.239,304.6,214.337Z" transform="translate(-139.374 -7.702)" fill="#2baced" opacity="0.3"/>
        <path id="Path_881" data-name="Path 881" d="M289.407,171.425a.145.145,0,0,1-.076.022c-.047,0-.081-.049-.1-.091-.108-.245-.047-.537-.211-.736a2.547,2.547,0,0,0-.4.675l-.633-.2a.935.935,0,0,0,.12.736.959.959,0,0,0-.3.2.336.336,0,0,0-.076.336,1.717,1.717,0,0,0,.447.044,2.945,2.945,0,0,0,.047.829.142.142,0,0,0,.054.105.152.152,0,0,0,.155-.025,1.473,1.473,0,0,0,.52-.552l.245.562a.245.245,0,0,0,.106.14.167.167,0,0,0,.2-.066.492.492,0,0,0,.071-.213l.086-.535a.137.137,0,0,1,.029-.076.127.127,0,0,1,.093-.027h.67c.039-.118-.078-.228-.194-.277a.566.566,0,0,1-.307-.2c-.115-.226.184-.54.056-.736S289.6,171.329,289.407,171.425Z" transform="translate(-127.911 24.678)" fill="#2baced" opacity="0.2"/>
        <path id="Path_882" data-name="Path 882" d="M319.338,227.427a.21.21,0,0,1-.076.022.142.142,0,0,1-.1-.093c-.108-.245-.047-.537-.211-.736a2.473,2.473,0,0,0-.4.675l-.633-.2a.93.93,0,0,0,.12.724,1.012,1.012,0,0,0-.3.2.334.334,0,0,0-.076.334,1.519,1.519,0,0,0,.447.044,2.946,2.946,0,0,0,.047.832.165.165,0,0,0,.054.105c.047.029.108,0,.155-.024a1.473,1.473,0,0,0,.52-.552l.245.562a.265.265,0,0,0,.106.14.167.167,0,0,0,.2-.069.491.491,0,0,0,.071-.214l.088-.535a.11.11,0,0,1,.029-.074.12.12,0,0,1,.093-.027h.667c.039-.118-.079-.228-.194-.28s-.245-.086-.307-.2c-.115-.226.184-.54.056-.736S319.532,227.329,319.338,227.427Z" transform="translate(-150.498 -17.58)" fill="#2baced" opacity="0.3"/>
      </g>
    </g>
  </g>
</svg>
